<svg width="30" height="37" viewBox="0 0 30 37" fill="none" xmlns="http://www.w3.org/2000/svg">
<path d="M20.4199 5.90111C21.1164 5.09508 21.6474 4.15884 21.9826 3.14615C22.3177 2.13347 22.4503 1.06429 22.3727 0C20.2345 0.173309 18.2496 1.1831 16.8457 2.81181C16.1735 3.59242 15.664 4.50053 15.3476 5.48238C15.0311 6.46423 14.9141 7.49985 15.0034 8.52793C16.0464 8.53666 17.0775 8.30427 18.0167 7.84877C18.956 7.39326 19.7782 6.72684 20.4199 5.90111ZM25.0625 19.6642C25.0749 18.2467 25.4468 16.8557 26.143 15.6226C26.8393 14.3894 27.837 13.3547 29.042 12.6162C28.2815 11.5159 27.2762 10.6087 26.1058 9.96653C24.9353 9.32433 23.632 8.96479 22.2991 8.91641C19.425 8.62043 16.7721 10.5998 15.2429 10.5998C13.7138 10.5998 11.5583 8.95341 9.16323 8.9904C7.59748 9.04219 6.07183 9.50056 4.73508 10.3208C3.39834 11.1411 2.29613 12.2952 1.53597 13.6706C-1.70653 19.3312 0.706922 27.7482 3.94943 32.3173C5.42329 34.5557 7.26562 37.09 9.6975 36.9975C12.1294 36.905 12.9216 35.4806 15.7403 35.4806C18.5591 35.4806 19.425 36.9975 21.82 36.942C24.2151 36.8865 25.91 34.6482 27.4576 32.4098C28.5539 30.7848 29.4102 29.009 30 27.1377C28.5399 26.5125 27.2942 25.4715 26.4167 24.1433C25.5393 22.8152 25.0685 21.258 25.0625 19.6642Z" fill="#212121"/>
</svg>
