<svg width="61" height="40" viewBox="0 0 61 40" fill="none" xmlns="http://www.w3.org/2000/svg">
<line x1="0.5" y1="2.18552e-08" x2="0.499998" y2="40" stroke="black"/>
<line x1="3.5" y1="2.18552e-08" x2="3.5" y2="40" stroke="black"/>
<line x1="6.5" y1="2.18552e-08" x2="6.5" y2="40" stroke="black"/>
<line x1="9.5" y1="2.18552e-08" x2="9.5" y2="40" stroke="black"/>
<line x1="12.5" y1="2.18552e-08" x2="12.5" y2="40" stroke="black"/>
<line x1="15.5" y1="2.18552e-08" x2="15.5" y2="40" stroke="black"/>
<line x1="18.5" y1="2.18552e-08" x2="18.5" y2="40" stroke="black"/>
<line x1="21.5" y1="2.18552e-08" x2="21.5" y2="40" stroke="black"/>
<line x1="24.5" y1="2.18552e-08" x2="24.5" y2="40" stroke="black"/>
<line x1="29" y1="8.74206e-08" x2="29" y2="40" stroke="black" stroke-width="4"/>
<line x1="32" y1="8.74206e-08" x2="32" y2="40" stroke="black" stroke-width="4"/>
<line x1="33.5" y1="2.18552e-08" x2="33.5" y2="40" stroke="black"/>
<line x1="36.5" y1="2.18552e-08" x2="36.5" y2="40" stroke="black"/>
<line x1="39.25" y1="1.09276e-08" x2="39.25" y2="40" stroke="black" stroke-width="0.5"/>
<line x1="42.25" y1="1.09276e-08" x2="42.25" y2="40" stroke="black" stroke-width="0.5"/>
<line x1="45.25" y1="1.09276e-08" x2="45.25" y2="40" stroke="black" stroke-width="0.5"/>
<line x1="48.25" y1="1.09276e-08" x2="48.25" y2="40" stroke="black" stroke-width="0.5"/>
<line x1="52" y1="4.37103e-08" x2="52" y2="40" stroke="black" stroke-width="2"/>
<line x1="55" y1="4.37103e-08" x2="55" y2="40" stroke="black" stroke-width="2"/>
<line x1="58" y1="4.37103e-08" x2="58" y2="40" stroke="black" stroke-width="2"/>
<line x1="60.25" y1="1.09276e-08" x2="60.25" y2="40" stroke="black" stroke-width="0.5"/>
</svg>
