<svg width="21" height="21" viewBox="0 0 21 21" fill="none" xmlns="http://www.w3.org/2000/svg">
<path d="M18.457 14.1211V6.0293C18.457 5.91285 18.426 5.79851 18.3673 5.69799C18.3085 5.59748 18.224 5.51441 18.1225 5.45733L10.9038 1.39678C10.8055 1.34153 10.6947 1.3125 10.582 1.3125C10.4693 1.3125 10.3585 1.34153 10.2603 1.39678L3.04155 5.45733C2.94006 5.51441 2.85559 5.59748 2.7968 5.69799C2.73801 5.79851 2.70703 5.91285 2.70703 6.0293V14.1211C2.70703 14.2375 2.73801 14.3519 2.7968 14.4524C2.85559 14.5529 2.94006 14.6359 3.04155 14.693L10.2603 18.7536C10.3585 18.8088 10.4693 18.8379 10.582 18.8379C10.6947 18.8379 10.8055 18.8088 10.9038 18.7536L18.1225 14.693C18.224 14.6359 18.3085 14.5529 18.3673 14.4524C18.426 14.3519 18.457 14.2375 18.457 14.1211Z" stroke="#3C82D6" stroke-linecap="round" stroke-linejoin="round"/>
<path d="M14.5213 12.5107V8.24504L6.5625 3.85547" stroke="#3C82D6" stroke-linecap="round" stroke-linejoin="round"/>
<path d="M18.2844 6.12167L10.5778 10.4999L2.71582 6.12085" stroke="#3C82D6" stroke-linecap="round" stroke-linejoin="round"/>
<path d="M10.5778 10.144L10.5007 18.9067" stroke="#3C82D6" stroke-linecap="round" stroke-linejoin="round"/>
</svg>
