<svg width="19" height="14" viewBox="0 0 19 14" fill="none" xmlns="http://www.w3.org/2000/svg">
<path d="M18.8144 2.6905C18.9332 2.57971 19 2.42943 19 2.27273V1.09091C19 0.93419 18.9333 0.78389 18.8145 0.673073C18.6957 0.562256 18.5346 0.5 18.3667 0.5H10.7667C10.5987 0.500033 10.4376 0.562312 10.3189 0.673136L9.87113 1.09091H9.12887L8.6811 0.673136C8.56235 0.562312 8.40129 0.500033 8.23333 0.5H0.633333C0.465363 0.5 0.304272 0.562256 0.185499 0.673073C0.066726 0.78389 0 0.93419 0 1.09091V2.27273C3.58704e-05 2.42943 0.0667854 2.57971 0.185567 2.6905L0.633333 3.10827V3.80082L0.185567 4.21859C0.0667854 4.32938 3.58704e-05 4.47966 0 4.63636V5.81818C3.58704e-05 5.97489 0.0667854 6.12516 0.185567 6.23595L0.633333 6.65373V7.34627L0.185567 7.76404C0.0667854 7.87484 3.58704e-05 8.02511 0 8.18182V9.36364C3.58704e-05 9.52034 0.0667854 9.67062 0.185567 9.78141L0.633333 10.1992V10.8917L0.185567 11.3095C0.0667854 11.4203 3.58704e-05 11.5706 0 11.7273V12.9091C0 13.0658 0.066726 13.2161 0.185499 13.3269C0.304272 13.4377 0.465363 13.5 0.633333 13.5H8.23333C8.3166 13.5001 8.39907 13.4848 8.47601 13.4551C8.55295 13.4254 8.62286 13.3818 8.68173 13.3269L9.12887 12.9091H9.87113L10.3189 13.3269C10.4376 13.4377 10.5987 13.5 10.7667 13.5H18.3667C18.5346 13.5 18.6957 13.4377 18.8145 13.3269C18.9333 13.2161 19 13.0658 19 12.9091V11.7273C19 11.5706 18.9332 11.4203 18.8144 11.3095L18.3667 10.8917V10.1992L18.8144 9.78141C18.9332 9.67062 19 9.52034 19 9.36364V8.18182C19 8.02511 18.9332 7.87484 18.8144 7.76404L18.3667 7.34627V6.65373L18.8144 6.23595C18.9332 6.12516 19 5.97489 19 5.81818V4.63636C19 4.47966 18.9332 4.32938 18.8144 4.21859L18.3667 3.80082V3.10827L18.8144 2.6905ZM10.5811 11.9004C10.4624 11.7896 10.3013 11.7273 10.1333 11.7273H8.86667C8.7834 11.7272 8.70093 11.7425 8.62399 11.7722C8.54705 11.8019 8.47714 11.8455 8.41827 11.9004L7.9705 12.3182H1.26667V11.9719L1.71443 11.5541C1.83321 11.4433 1.89996 11.2931 1.9 11.1364V9.95455C1.89996 9.79784 1.83321 9.64756 1.71443 9.53677L1.26667 9.119V8.42645L1.71443 8.00868C1.83321 7.89789 1.89996 7.74761 1.9 7.59091V6.40909C1.89996 6.25238 1.83321 6.10211 1.71443 5.99132L1.26667 5.57355V4.881L1.71443 4.46323C1.83321 4.35244 1.89996 4.20216 1.9 4.04545V2.86364C1.89996 2.70693 1.83321 2.55665 1.71443 2.44586L1.26667 2.02809V1.68182H7.9705L8.41827 2.09959C8.47714 2.15454 8.54705 2.19811 8.62399 2.22782C8.70093 2.25753 8.7834 2.27279 8.86667 2.27273H10.1333C10.3013 2.27269 10.4624 2.21042 10.5811 2.09959L11.0289 1.68182H17.7333V2.02809L17.2856 2.44586C17.1668 2.55665 17.1 2.70693 17.1 2.86364V4.04545C17.1 4.20216 17.1668 4.35244 17.2856 4.46323L17.7333 4.881V5.57355L17.2856 5.99132C17.1668 6.10211 17.1 6.25238 17.1 6.40909V7.59091C17.1 7.74761 17.1668 7.89789 17.2856 8.00868L17.7333 8.42645V9.119L17.2856 9.53677C17.1668 9.64756 17.1 9.79784 17.1 9.95455V11.1364C17.1 11.2931 17.1668 11.4433 17.2856 11.5541L17.7333 11.9719V12.3182H11.0295L10.5811 11.9004ZM5.06667 5.81818C5.06667 5.9749 5.13339 6.1252 5.25217 6.23602C5.37094 6.34683 5.53203 6.40909 5.7 6.40909C6.14766 6.4083 6.58117 6.55535 6.92375 6.8242C7.26634 7.09305 7.49589 7.46636 7.57174 7.87799C7.6476 8.28962 7.56487 8.71301 7.3382 9.07318C7.11154 9.43336 6.75556 9.70706 6.33333 9.84582V10.5455C6.33333 10.7022 6.26661 10.8525 6.14783 10.9633C6.02906 11.0741 5.86797 11.1364 5.7 11.1364C5.53203 11.1364 5.37094 11.0741 5.25217 10.9633C5.13339 10.8525 5.06667 10.7022 5.06667 10.5455V9.84582C4.69749 9.72404 4.37766 9.49882 4.15092 9.20096C3.92419 8.9031 3.80162 8.54715 3.8 8.18182C3.8 8.0251 3.86673 7.8748 3.9855 7.76398C4.10427 7.65316 4.26536 7.59091 4.43333 7.59091C4.6013 7.59091 4.76239 7.65316 4.88117 7.76398C4.99994 7.8748 5.06667 8.0251 5.06667 8.18182C5.06667 8.29869 5.10381 8.41294 5.1734 8.51011C5.24299 8.60728 5.34191 8.68302 5.45763 8.72775C5.57336 8.77247 5.7007 8.78417 5.82356 8.76137C5.94641 8.73857 6.05926 8.68229 6.14783 8.59965C6.23641 8.51701 6.29673 8.41172 6.32116 8.2971C6.3456 8.18247 6.33306 8.06366 6.28512 7.95569C6.23719 7.84771 6.15601 7.75542 6.05186 7.69049C5.94771 7.62556 5.82526 7.59091 5.7 7.59091C5.25234 7.5917 4.81883 7.44465 4.47625 7.1758C4.13366 6.90694 3.90411 6.53364 3.82825 6.12201C3.7524 5.71038 3.83513 5.28699 4.0618 4.92682C4.28846 4.56664 4.64443 4.29294 5.06667 4.15418V3.45455C5.06667 3.29783 5.13339 3.14753 5.25217 3.03671C5.37094 2.92589 5.53203 2.86364 5.7 2.86364C5.86797 2.86364 6.02906 2.92589 6.14783 3.03671C6.26661 3.14753 6.33333 3.29783 6.33333 3.45455V4.15418C6.70251 4.27596 7.02234 4.50118 7.24908 4.79904C7.47581 5.0969 7.59838 5.45285 7.6 5.81818C7.6 5.9749 7.53327 6.1252 7.4145 6.23602C7.29573 6.34683 7.13464 6.40909 6.96667 6.40909C6.7987 6.40909 6.63761 6.34683 6.51883 6.23602C6.40006 6.1252 6.33333 5.9749 6.33333 5.81818C6.33333 5.66146 6.26661 5.51116 6.14783 5.40035C6.02906 5.28953 5.86797 5.22727 5.7 5.22727C5.53203 5.22727 5.37094 5.28953 5.25217 5.40035C5.13339 5.51116 5.06667 5.66146 5.06667 5.81818ZM10.7667 5.52273C10.7667 5.34742 10.8224 5.17605 10.9268 5.03029C11.0312 4.88453 11.1795 4.77092 11.3531 4.70383C11.5267 4.63675 11.7177 4.61919 11.902 4.65339C12.0863 4.6876 12.2556 4.77201 12.3884 4.89597C12.5213 5.01993 12.6118 5.17787 12.6484 5.34981C12.6851 5.52174 12.6663 5.69996 12.5944 5.86192C12.5224 6.02389 12.4007 6.16232 12.2445 6.25971C12.0882 6.35711 11.9046 6.40909 11.7167 6.40909C11.4647 6.40909 11.2231 6.31571 11.0449 6.14948C10.8668 5.98326 10.7667 5.75781 10.7667 5.52273ZM15.2 8.47727C15.2 8.65258 15.1443 8.82395 15.0399 8.96971C14.9355 9.11547 14.7871 9.22908 14.6135 9.29617C14.44 9.36325 14.2489 9.38081 14.0647 9.3466C13.8804 9.3124 13.7111 9.22799 13.5782 9.10403C13.4454 8.98007 13.3549 8.82213 13.3183 8.65019C13.2816 8.47826 13.3004 8.30004 13.3723 8.13808C13.4442 7.97611 13.566 7.83768 13.7222 7.74029C13.8784 7.64289 14.0621 7.59091 14.25 7.59091C14.502 7.59091 14.7436 7.68429 14.9218 7.85052C15.0999 8.01674 15.2 8.24219 15.2 8.47727ZM15.0531 5.60545L11.8864 9.15091C11.8339 9.21263 11.7687 9.26394 11.6947 9.30181C11.6206 9.33968 11.5392 9.36335 11.4552 9.37142C11.3712 9.37949 11.2863 9.37181 11.2055 9.34883C11.1247 9.32584 11.0497 9.28801 10.9848 9.23757C10.9199 9.18713 10.8665 9.12509 10.8277 9.05511C10.7889 8.98512 10.7655 8.9086 10.7589 8.83005C10.7523 8.7515 10.7625 8.67251 10.7891 8.59772C10.8157 8.52293 10.858 8.45385 10.9136 8.39455L14.0803 4.84909C14.1328 4.78737 14.1979 4.73606 14.272 4.69819C14.3461 4.66032 14.4275 4.63665 14.5115 4.62858C14.5955 4.62051 14.6804 4.62819 14.7612 4.65117C14.8419 4.67416 14.917 4.71199 14.9818 4.76243C15.0467 4.81287 15.1001 4.87491 15.1389 4.94489C15.1777 5.01488 15.2011 5.0914 15.2078 5.16995C15.2144 5.24849 15.2041 5.32749 15.1776 5.40228C15.151 5.47707 15.1087 5.54615 15.0531 5.60545Z" fill="#A4A4A4"/>
</svg>
