<svg width="17" height="17" viewBox="0 0 17 17" fill="none" xmlns="http://www.w3.org/2000/svg">
<path d="M8.5 17C3.825 17 0 13.175 0 8.5C0 3.825 3.825 0 8.5 0C13.175 0 17 3.825 17 8.5C17 13.175 13.175 17 8.5 17ZM8.5 1.41667C4.60417 1.41667 1.41667 4.60417 1.41667 8.5C1.41667 12.3958 4.60417 15.5833 8.5 15.5833C12.3958 15.5833 15.5833 12.3958 15.5833 8.5C15.5833 4.60417 12.3958 1.41667 8.5 1.41667Z" fill="black"/>
<path d="M8.49984 9.20833C7.154 9.20833 6.02067 8.35833 5.73734 7.225C5.6665 7.08333 5.6665 6.94167 5.6665 6.72917C5.6665 5.38333 6.9415 4.25 8.49984 4.25C10.0582 4.25 11.3332 5.38333 11.3332 6.72917C11.3332 6.94167 11.3332 7.08333 11.2623 7.225C11.1915 7.57917 10.7665 7.8625 10.4123 7.72083C10.0582 7.65 9.77484 7.225 9.9165 6.87083V6.65833C9.9165 6.1625 9.279 5.66667 8.49984 5.66667C7.72067 5.66667 7.08317 6.1625 7.08317 6.72917V6.94167C7.22484 7.4375 7.7915 7.79167 8.49984 7.79167C8.92484 7.79167 9.20817 8.075 9.20817 8.5C9.20817 8.925 8.92484 9.20833 8.49984 9.20833Z" fill="black"/>
<path d="M8.49984 12.75C6.9415 12.75 5.6665 11.6167 5.6665 10.2708C5.6665 10.0583 5.6665 9.91665 5.73734 9.77499C5.80817 9.42082 6.23317 9.13749 6.58734 9.27915C6.9415 9.34999 7.22484 9.77499 7.08317 10.1292V10.3417C7.08317 10.9083 7.72067 11.4042 8.49984 11.4042C9.279 11.4042 9.9165 10.9083 9.9165 10.3417V10.1292C9.77484 9.63332 9.20817 9.27915 8.49984 9.27915C8.07484 9.27915 7.7915 8.99582 7.7915 8.57082C7.7915 8.14582 8.07484 7.86249 8.49984 7.86249C9.84567 7.86249 10.979 8.71249 11.2623 9.84582C11.3332 9.91665 11.3332 10.0583 11.3332 10.2708C11.3332 11.6167 10.0582 12.75 8.49984 12.75Z" fill="black"/>
<path d="M8.49984 14.1666C8.07484 14.1666 7.7915 13.8833 7.7915 13.4583V12.0416C7.7915 11.6166 8.07484 11.3333 8.49984 11.3333C8.92484 11.3333 9.20817 11.6166 9.20817 12.0416V13.4583C9.20817 13.8833 8.92484 14.1666 8.49984 14.1666ZM8.49984 5.66665C8.07484 5.66665 7.7915 5.38331 7.7915 4.95831V3.54165C7.7915 3.11665 8.07484 2.83331 8.49984 2.83331C8.92484 2.83331 9.20817 3.11665 9.20817 3.54165V4.95831C9.20817 5.38331 8.92484 5.66665 8.49984 5.66665ZM10.6248 7.79165C10.4123 7.79165 10.2707 7.72081 10.129 7.57915C9.98734 7.43748 9.9165 7.29581 9.9165 7.08331C9.9165 6.87081 9.98734 6.72915 10.129 6.58748C10.4123 6.30415 10.8373 6.30415 11.1207 6.58748C11.2623 6.72915 11.3332 6.87081 11.3332 7.08331C11.3332 7.29581 11.2623 7.43748 11.1207 7.57915C10.979 7.72081 10.8373 7.79165 10.6248 7.79165Z" fill="black"/>
</svg>
