<svg width="19" height="20" viewBox="0 0 19 20" fill="none" xmlns="http://www.w3.org/2000/svg">
<path fill-rule="evenodd" clip-rule="evenodd" d="M1.90371 0.5C0.862063 0.5 0 1.35588 0 2.39753V17.5975C0 18.6391 0.862063 19.5 1.90371 19.5H17.1025C18.1441 19.5 19 18.6391 19 17.5975V2.39753C19 1.35588 18.1441 0.5 17.1025 0.5H1.90371ZM1.90371 1.76172H17.1025C17.4643 1.76172 17.7383 2.03569 17.7383 2.39753V5.56419H5.70247C4.84639 5.55222 4.84639 6.84256 5.70247 6.83086H17.7383V17.5975C17.7383 17.9593 17.4643 18.2333 17.1025 18.2333H1.90371C1.54189 18.2333 1.26667 17.9593 1.26667 17.5975V6.83086H3.16914C4.02522 6.84283 4.02522 5.55249 3.16914 5.56419H1.26667V2.39753C1.26667 2.03569 1.54189 1.76172 1.90371 1.76172ZM3.16914 3.03086C2.81935 3.03086 2.5358 3.3144 2.53581 3.66419C2.53581 4.01396 2.81936 4.29753 3.16914 4.29753C3.51892 4.29753 3.80247 4.01396 3.80247 3.66419C3.80248 3.3144 3.51893 3.03086 3.16914 3.03086ZM5.70247 3.03086C5.35269 3.03086 5.06913 3.3144 5.06914 3.66419C5.06914 4.01396 5.3527 4.29753 5.70247 4.29753C6.05225 4.29753 6.3358 4.01396 6.33581 3.66419C6.33582 3.3144 6.05226 3.03086 5.70247 3.03086ZM8.23581 3.03086C7.88602 3.03086 7.60247 3.3144 7.60247 3.66419C7.60248 4.01396 7.88603 4.29753 8.23581 4.29753C8.58558 4.29753 8.86914 4.01396 8.86914 3.66419C8.86915 3.3144 8.58559 3.03086 8.23581 3.03086ZM5.70371 9.36419C5.61934 9.3623 5.53545 9.37728 5.45695 9.40826C5.37845 9.43923 5.30694 9.48558 5.2466 9.54458C5.18626 9.60358 5.13832 9.67404 5.10559 9.75182C5.07286 9.8296 5.056 9.91314 5.056 9.99753C5.056 10.0819 5.07286 10.1655 5.10559 10.2432C5.13832 10.321 5.18626 10.3915 5.2466 10.4505C5.30694 10.5095 5.37845 10.5558 5.45695 10.5868C5.53545 10.6178 5.61934 10.6328 5.70371 10.6309H13.3012C13.3856 10.6328 13.4695 10.6178 13.548 10.5868C13.6265 10.5558 13.698 10.5095 13.7583 10.4505C13.8187 10.3915 13.8666 10.321 13.8994 10.2432C13.9321 10.1655 13.9489 10.0819 13.9489 9.99753C13.9489 9.91314 13.9321 9.8296 13.8994 9.75182C13.8666 9.67404 13.8187 9.60358 13.7583 9.54458C13.698 9.48558 13.6265 9.43923 13.548 9.40826C13.4695 9.37728 13.3856 9.3623 13.3012 9.36419H5.70371ZM5.63815 11.8975C5.47002 11.9062 5.31222 11.9813 5.19948 12.1064C5.08674 12.2314 5.02829 12.3961 5.03698 12.5643C5.04567 12.7324 5.1208 12.8902 5.24584 13.0029C5.37087 13.1157 5.53558 13.1741 5.70371 13.1654H13.3012C13.4694 13.1654 13.6306 13.0986 13.7495 12.9797C13.8684 12.8609 13.9352 12.6996 13.9352 12.5315C13.9352 12.3633 13.8684 12.2021 13.7495 12.0832C13.6306 11.9643 13.4694 11.8975 13.3012 11.8975H5.70371C5.68187 11.8964 5.65999 11.8964 5.63815 11.8975ZM5.63815 14.4321C5.47281 14.4443 5.31883 14.5208 5.20919 14.6452C5.09954 14.7696 5.04295 14.9319 5.05152 15.0975C5.06009 15.2631 5.13314 15.4187 5.25504 15.5311C5.37694 15.6435 5.53799 15.7037 5.70371 15.6988H9.5C9.58437 15.7007 9.66826 15.6857 9.74676 15.6547C9.82526 15.6237 9.89677 15.5774 9.95711 15.5184C10.0174 15.4594 10.0654 15.3889 10.0981 15.3111C10.1309 15.2334 10.1477 15.1498 10.1477 15.0654C10.1477 14.981 10.1309 14.8975 10.0981 14.8197C10.0654 14.7419 10.0174 14.6715 9.95711 14.6125C9.89677 14.5535 9.82526 14.5071 9.74676 14.4762C9.66826 14.4452 9.58437 14.4302 9.5 14.4321H5.70371C5.68187 14.431 5.65999 14.431 5.63815 14.4321Z" fill="#A4A4A4"/>
</svg>
