<svg width="19" height="20" viewBox="0 0 19 20" fill="none" xmlns="http://www.w3.org/2000/svg">
<path d="M9.5 0.5C4.25362 0.5 0 4.75362 0 10C0 15.2464 4.25362 19.5 9.5 19.5C14.7464 19.5 19 15.2464 19 10C19 4.75362 14.7464 0.5 9.5 0.5ZM9.5 18.3125C4.91625 18.3125 1.1875 14.5837 1.1875 10C1.1875 5.41625 4.91625 1.6875 9.5 1.6875C14.0837 1.6875 17.8125 5.41625 17.8125 10C17.8125 14.5837 14.0837 18.3125 9.5 18.3125ZM8.38612 6.99444C8.38612 6.51226 8.19458 6.04983 7.85363 5.70887C7.51267 5.36792 7.05024 5.17637 6.56806 5.17637C6.08588 5.17637 5.62345 5.36792 5.2825 5.70887C4.94155 6.04983 4.75 6.51226 4.75 6.99444C4.75 7.47662 4.94155 7.93905 5.2825 8.28C5.62345 8.62095 6.08588 8.8125 6.56806 8.8125C7.05024 8.8125 7.51267 8.62095 7.85363 8.28C8.19458 7.93905 8.38612 7.47662 8.38612 6.99444ZM5.9375 6.99444C5.93495 6.90996 5.94939 6.82584 5.97996 6.74705C6.01054 6.66826 6.05662 6.59641 6.11549 6.53577C6.17435 6.47513 6.2448 6.42692 6.32265 6.39402C6.40049 6.36112 6.48415 6.34418 6.56867 6.34422C6.65318 6.34426 6.73682 6.36128 6.81464 6.39425C6.89245 6.42723 6.96285 6.4755 7.02166 6.53619C7.08047 6.59689 7.12649 6.66878 7.15699 6.7476C7.18749 6.82642 7.20185 6.91056 7.19922 6.99503C7.19411 7.15899 7.12537 7.31453 7.00755 7.42867C6.88974 7.54282 6.73211 7.60661 6.56807 7.60654C6.40403 7.60646 6.24646 7.54252 6.12876 7.42826C6.01105 7.314 5.94245 7.1584 5.9375 6.99444ZM12.4319 11.1139C11.9498 11.1139 11.4873 11.3054 11.1464 11.6464C10.8054 11.9873 10.6139 12.4498 10.6139 12.9319C10.6139 13.4141 10.8054 13.8765 11.1464 14.2175C11.4873 14.5585 11.9498 14.75 12.4319 14.75C12.9141 14.75 13.3765 14.5585 13.7175 14.2175C14.0585 13.8765 14.25 13.4141 14.25 12.9319C14.25 12.4498 14.0585 11.9873 13.7175 11.6464C13.3765 11.3054 12.9141 11.1139 12.4319 11.1139ZM12.4319 13.5625C12.3475 13.5651 12.2633 13.5506 12.1845 13.52C12.1058 13.4895 12.0339 13.4434 11.9733 13.3845C11.9126 13.3256 11.8644 13.2552 11.8315 13.1774C11.7986 13.0995 11.7817 13.0158 11.7817 12.9313C11.7818 12.8468 11.7988 12.7632 11.8318 12.6854C11.8647 12.6075 11.913 12.5371 11.9737 12.4783C12.0344 12.4195 12.1063 12.3735 12.1851 12.343C12.2639 12.3125 12.3481 12.2982 12.4325 12.3008C12.5965 12.3059 12.752 12.3746 12.8662 12.4924C12.9803 12.6103 13.0441 12.7679 13.044 12.9319C13.044 13.096 12.98 13.2535 12.8658 13.3712C12.7515 13.4889 12.5959 13.5575 12.4319 13.5625ZM13.4829 6.01713C13.3715 5.90581 13.2205 5.84328 13.0631 5.84328C12.9057 5.84328 12.7547 5.90581 12.6433 6.01713L5.51831 13.1421C5.46311 13.1973 5.4193 13.2627 5.3894 13.3348C5.35949 13.4068 5.34407 13.4841 5.34401 13.5621C5.3439 13.7196 5.40639 13.8708 5.51772 13.9823C5.62905 14.0938 5.78011 14.1565 5.93767 14.1566C6.09523 14.1567 6.24638 14.0942 6.35787 13.9829L13.4829 6.85787C13.7144 6.62512 13.7144 6.24988 13.4829 6.01713Z" fill="#A4A4A4"/>
</svg>
