<svg width="35" height="35" viewBox="0 0 35 35" fill="none" xmlns="http://www.w3.org/2000/svg">
<path d="M34.3 17.8889C34.3 16.45 34.1832 15.4 33.9306 14.3112H17.5V20.8055H27.1444C26.95 22.4195 25.9 24.85 23.5666 26.4833L23.5339 26.7007L28.729 30.7252L29.0889 30.7612C32.3944 27.7083 34.3 23.2167 34.3 17.8889Z" fill="#3C82D6"/>
<path d="M17.5 34.9999C22.2249 34.9999 26.1915 33.4443 29.0888 30.7611L23.5666 26.4832C22.0888 27.5137 20.1055 28.2332 17.5 28.2332C12.8722 28.2332 8.94446 25.1805 7.54433 20.9611L7.3391 20.9785L1.93722 25.159L1.86658 25.3554C4.74433 31.0721 10.6555 34.9999 17.5 34.9999Z" fill="#212121"/>
<path d="M7.54437 20.9611C7.17493 19.8722 6.96113 18.7055 6.96113 17.5C6.96113 16.2943 7.17493 15.1277 7.52493 14.0388L7.51515 13.8069L2.04558 9.5592L1.86662 9.64433C0.680563 12.0166 0 14.6805 0 17.5C0 20.3194 0.680563 22.9832 1.86662 25.3554L7.54437 20.9611Z" fill="#FBBC05"/>
<path d="M17.5 6.76662C20.786 6.76662 23.0026 8.18606 24.2666 9.37225L29.2055 4.55C26.1722 1.73056 22.2249 0 17.5 0C10.6555 0 4.74433 3.92775 1.86658 9.64437L7.52489 14.0389C8.94446 9.81944 12.8722 6.76662 17.5 6.76662Z" fill="#EB4335"/>
</svg>
