<svg width="19" height="18" viewBox="0 0 19 18" fill="none" xmlns="http://www.w3.org/2000/svg">
<path d="M14.0315 2.71895C14.2496 2.84246 14.5079 2.87492 14.75 2.80925C14.992 2.74358 15.1982 2.58511 15.3235 2.36842C15.4072 2.22385 15.5277 2.1039 15.6729 2.02072C15.818 1.93753 15.9826 1.89407 16.15 1.89474C16.402 1.89474 16.6436 1.99455 16.8218 2.17221C16.9999 2.34988 17.1 2.59085 17.1 2.8421C17.1 3.09336 16.9999 3.33433 16.8218 3.512C16.6436 3.68966 16.402 3.78947 16.15 3.78947C15.898 3.78947 15.6564 3.88929 15.4782 4.06695C15.3001 4.24462 15.2 4.48558 15.2 4.73684C15.2 4.9881 15.3001 5.22907 15.4782 5.40673C15.6564 5.5844 15.898 5.68421 16.15 5.68421C16.6502 5.68389 17.1415 5.55229 17.5746 5.30264C18.0076 5.05299 18.3671 4.69408 18.617 4.26197C18.8669 3.82987 18.9984 3.33978 18.9982 2.84097C18.998 2.34215 18.8661 1.85217 18.6159 1.42026C18.3656 0.988356 18.0058 0.629733 17.5726 0.380428C17.1393 0.131124 16.6479 -7.98576e-05 16.1477 3.64657e-08C15.6475 7.99305e-05 15.1561 0.131441 14.723 0.380883C14.2898 0.630326 13.9301 0.989064 13.68 1.42105C13.6172 1.52918 13.5764 1.64863 13.5601 1.77253C13.5438 1.89642 13.5522 2.02231 13.5849 2.14295C13.6176 2.26359 13.6738 2.37659 13.7505 2.47544C13.8271 2.5743 13.9226 2.65706 14.0315 2.71895ZM18.05 10.4211C17.798 10.4211 17.5564 10.5209 17.3782 10.6985C17.2001 10.8762 17.1 11.1172 17.1 11.3684V15.1579C17.1 15.4092 16.9999 15.6501 16.8218 15.8278C16.6436 16.0055 16.402 16.1053 16.15 16.1053H2.85C2.59804 16.1053 2.35641 16.0055 2.17825 15.8278C2.00009 15.6501 1.9 15.4092 1.9 15.1579V6.07263L7.486 11.6526C8.02038 12.1849 8.74475 12.4838 9.5 12.4838C10.2553 12.4838 10.9796 12.1849 11.514 11.6526L13.072 10.0989C13.1606 10.0106 13.2308 9.90575 13.2788 9.79034C13.3267 9.67493 13.3514 9.55123 13.3514 9.42632C13.3514 9.3014 13.3267 9.1777 13.2788 9.06229C13.2308 8.94688 13.1606 8.84201 13.072 8.75368C12.9834 8.66535 12.8783 8.59528 12.7625 8.54748C12.6468 8.49967 12.5228 8.47507 12.3975 8.47507C12.2722 8.47507 12.1482 8.49967 12.0325 8.54748C11.9167 8.59528 11.8116 8.66535 11.723 8.75368L10.165 10.3074C9.98742 10.481 9.74866 10.5782 9.5 10.5782C9.25134 10.5782 9.01258 10.481 8.835 10.3074L3.2395 4.73684H10.45C10.702 4.73684 10.9436 4.63703 11.1218 4.45936C11.2999 4.2817 11.4 4.04073 11.4 3.78947C11.4 3.53822 11.2999 3.29725 11.1218 3.11958C10.9436 2.94192 10.702 2.8421 10.45 2.8421H2.85C2.09413 2.8421 1.36922 3.14154 0.834746 3.67454C0.300267 4.20754 0 4.93044 0 5.68421V15.1579C0 15.9117 0.300267 16.6346 0.834746 17.1676C1.36922 17.7006 2.09413 18 2.85 18H16.15C16.9059 18 17.6308 17.7006 18.1653 17.1676C18.6997 16.6346 19 15.9117 19 15.1579V11.3684C19 11.1172 18.8999 10.8762 18.7218 10.6985C18.5436 10.5209 18.302 10.4211 18.05 10.4211ZM15.4755 6.90632C15.3865 6.99439 15.3158 7.09917 15.2676 7.21461C15.2193 7.33006 15.1945 7.45388 15.1945 7.57895C15.1945 7.70401 15.2193 7.82784 15.2676 7.94328C15.3158 8.05873 15.3865 8.16351 15.4755 8.25158L15.618 8.36526C15.671 8.40112 15.7285 8.42979 15.789 8.45053C15.8429 8.47784 15.9005 8.497 15.96 8.50737H16.15C16.3387 8.50846 16.5234 8.45349 16.6807 8.34947C16.8379 8.24545 16.9605 8.09709 17.0329 7.9233C17.1053 7.74951 17.1241 7.55817 17.087 7.37367C17.0499 7.18917 16.9585 7.01988 16.8245 6.88737C16.7349 6.7998 16.6289 6.73079 16.5124 6.68431C16.396 6.63783 16.2715 6.61481 16.146 6.61657C16.0206 6.61833 15.8968 6.64484 15.7817 6.69457C15.6666 6.7443 15.5626 6.81627 15.4755 6.90632Z" fill="#A4A4A4"/>
</svg>
