<svg width="28" height="27" viewBox="0 0 28 27" fill="none" xmlns="http://www.w3.org/2000/svg">
<path d="M18.8214 9.64286C23.6145 9.64286 27.5 13.5284 27.5 18.3214C27.5 23.1145 23.6145 27 18.8214 27C14.0284 27 10.1429 23.1145 10.1429 18.3214C10.1429 13.5284 14.0284 9.64286 18.8214 9.64286ZM18.8214 13.5C18.2889 13.5 17.8571 13.9317 17.8571 14.4643V17.3571H14.9643C14.4317 17.3571 14 17.7889 14 18.3214C14 18.8539 14.4317 19.2857 14.9643 19.2857H17.8571V22.1786C17.8571 22.7111 18.2889 23.1429 18.8214 23.1429C19.3539 23.1429 19.7857 22.7111 19.7857 22.1786V19.2857H22.6786C23.2111 19.2857 23.6429 18.8539 23.6429 18.3214C23.6429 17.7889 23.2111 17.3571 22.6786 17.3571H19.7857V14.4643C19.7857 13.9317 19.3539 13.5 18.8214 13.5ZM10.6388 11.5714C9.12422 13.4054 8.21429 15.7572 8.21429 18.3214C8.21429 19.3243 8.35343 20.2945 8.61348 21.2139L8.33037 21.2158C3.45588 21.2158 0.688358 19.5869 0.509273 16.3037L0.5 15.9582V14.4643C0.5 12.9606 1.64728 11.7248 3.11425 11.5847L3.39286 11.5714H10.6388ZM8.21429 0C10.8775 0 13.0365 2.15898 13.0365 4.8222C13.0365 7.48544 10.8775 9.64442 8.21429 9.64442C5.55104 9.64442 3.39207 7.48544 3.39207 4.8222C3.39207 2.15898 5.55104 0 8.21429 0ZM17.8571 1.92857C19.9874 1.92857 21.7143 3.65547 21.7143 5.78571C21.7143 6.58746 21.4697 7.33208 21.0511 7.94901C20.3321 7.79523 19.5863 7.71429 18.8214 7.71429C17.4861 7.71429 16.2086 7.96101 15.0316 8.41137C14.3915 7.72283 14 6.79999 14 5.78571C14 3.65547 15.7269 1.92857 17.8571 1.92857Z" fill="white"/>
</svg>
