<svg width="19" height="16" viewBox="0 0 19 16" fill="none" xmlns="http://www.w3.org/2000/svg">
<path d="M19.0001 4.56566H17.8918V1.69697C17.8918 1.37374 17.6543 1.13131 17.3376 1.13131H1.70229C1.38562 1.13131 1.14812 1.37374 1.14812 1.69697V4.56566H0.0397949V1.69697C0.0397949 0.767677 0.791874 0 1.70229 0H17.3376C18.248 0 19.0001 0.767677 19.0001 1.69697V4.56566ZM16.1897 16H2.77103C1.86062 16 1.10854 15.2323 1.10854 14.303V4.60606H2.21687V14.303C2.21687 14.6263 2.45436 14.8687 2.77103 14.8687H16.1897C16.5064 14.8687 16.7439 14.6263 16.7439 14.303V4.60606H17.8522V14.303C17.8918 15.2323 17.1397 16 16.1897 16Z" fill="#A4A4A4"/>
<path d="M11.7166 7.99974H7.24371C6.92704 7.99974 6.68955 7.75731 6.68955 7.43408C6.68955 7.11085 6.92704 6.86843 7.24371 6.86843H11.7166C12.0333 6.86843 12.2708 7.11085 12.2708 7.43408C12.2708 7.75731 12.0333 7.99974 11.7166 7.99974ZM0 3.43408H18.9999V4.56539H0V3.43408Z" fill="#A4A4A4"/>
</svg>
