<svg width="23" height="23" viewBox="0 0 23 23" fill="none" xmlns="http://www.w3.org/2000/svg">
<path d="M20.2148 15.4659V6.60352C20.2148 6.47598 20.1809 6.35075 20.1165 6.24066C20.0521 6.13057 19.9596 6.0396 19.8485 5.97707L11.9422 1.52981C11.8346 1.46929 11.7133 1.4375 11.5898 1.4375C11.4664 1.4375 11.3451 1.46929 11.2375 1.52981L3.33122 5.97707C3.22006 6.0396 3.12755 6.13057 3.06316 6.24066C2.99878 6.35075 2.96484 6.47598 2.96484 6.60352V15.4659C2.96484 15.5935 2.99878 15.7187 3.06316 15.8288C3.12755 15.9389 3.22006 16.0298 3.33122 16.0924L11.2375 20.5396C11.3451 20.6001 11.4664 20.6319 11.5898 20.6319C11.7133 20.6319 11.8346 20.6001 11.9422 20.5396L19.8485 16.0924C19.9596 16.0298 20.0521 15.9389 20.1165 15.8288C20.1809 15.7187 20.2148 15.5935 20.2148 15.4659Z" stroke="#A4A4A4" stroke-linecap="round" stroke-linejoin="round"/>
<path d="M15.9043 13.7022V9.03028L7.1875 4.22266" stroke="#A4A4A4" stroke-linecap="round" stroke-linejoin="round"/>
<path d="M20.0257 6.70476L11.5851 11.5L2.97437 6.70386" stroke="#A4A4A4" stroke-linecap="round" stroke-linejoin="round"/>
<path d="M11.5851 11.1101L11.5007 20.7073" stroke="#A4A4A4" stroke-linecap="round" stroke-linejoin="round"/>
</svg>
