<svg width="17" height="17" viewBox="0 0 17 17" fill="none" xmlns="http://www.w3.org/2000/svg">
<path d="M10.8207 2.70436C10.8203 2.57527 10.8277 2.44628 10.8432 2.31812H1.54591C1.1363 2.31938 0.743818 2.48262 0.454175 2.77221C0.164532 3.06181 0.00125567 3.45422 0 3.86376V15.4544C0.00125567 15.8639 0.164532 16.2563 0.454175 16.5459C0.743818 16.8355 1.1363 16.9987 1.54591 17H13.1386C13.5482 16.9987 13.9407 16.8355 14.2303 16.5459C14.52 16.2563 14.6832 15.8639 14.6845 15.4544V6.15876C14.5563 6.1744 14.4273 6.18212 14.2982 6.18188C13.3761 6.18062 12.4922 5.81384 11.8402 5.16195C11.1881 4.51006 10.822 3.62627 10.8207 2.70436ZM14.2975 0C13.6476 0.00113845 13.0197 0.236039 12.5287 0.661782C12.0377 1.08753 11.7163 1.67569 11.6233 2.3188C11.6011 2.4461 11.5906 2.57515 11.592 2.70436C11.5927 3.42156 11.878 4.10918 12.3852 4.61632C12.8924 5.12345 13.5802 5.40868 14.2975 5.4094C14.427 5.41083 14.5563 5.40036 14.6838 5.37812C15.36 5.28026 15.9741 4.93003 16.4025 4.39787C16.8309 3.86571 17.0419 3.1911 16.9931 2.50972C16.9442 1.82833 16.6391 1.19071 16.1392 0.725099C15.6392 0.259487 14.9814 0.000419513 14.2982 0H14.2975Z" fill="#FFF5F5"/>
</svg>
