<svg width="16" height="16" viewBox="0 0 16 16" fill="none" xmlns="http://www.w3.org/2000/svg">
<path d="M8.00014 1.77783C4.56387 1.77783 1.77783 4.56387 1.77783 8.00014C1.77783 11.4364 4.56387 14.2224 8.00014 14.2224C11.4364 14.2224 14.2224 11.4364 14.2224 8.00014C14.2224 4.56387 11.4364 1.77783 8.00014 1.77783Z" fill="#34485C"/>
<path d="M8.0001 1C9.38457 1.00005 10.7379 1.41062 11.8891 2.17982C13.0402 2.94902 13.9374 4.04232 14.4672 5.32142C14.997 6.60049 15.1356 8.00789 14.8656 9.36575C14.5955 10.7236 13.9289 11.9709 12.9499 12.9499C11.971 13.9289 10.7237 14.5957 9.36587 14.8658C8.008 15.136 6.60051 14.9974 5.32139 14.4676C4.04222 13.9378 2.94889 13.0406 2.17969 11.8894C1.41048 10.7382 0.999945 9.38469 1 8.00013" stroke="#34485C" stroke-linejoin="round"/>
<path d="M1 8.00013C1 6.14359 1.73751 4.36304 3.05028 3.05027C4.36305 1.7375 6.14356 1 8.0001 1" stroke="#34485C" stroke-linejoin="round" stroke-dasharray="1 1"/>
<path opacity="0.15" d="M9.60249 4.11121L7.48172 6.23246L5.36095 4.11171L3.59277 5.87883L5.71354 8.00015L3.59277 10.1214L5.36095 11.8896L7.48172 9.76777L9.60249 11.8891L11.3707 10.1214L9.24989 8.00066L11.3707 5.87883L9.60249 4.11121Z" fill="black"/>
<path d="M10.121 4.11121L8.00027 6.23246L5.8795 4.11171L4.11133 5.87883L6.2321 8.00015L4.11133 10.1214L5.8795 11.8896L8.00027 9.76777L10.121 11.8891L11.8892 10.1214L9.76844 8.00066L11.8892 5.87883L10.121 4.11121Z" fill="#F05542"/>
</svg>
