<svg width="21" height="20" viewBox="0 0 21 20" fill="none" xmlns="http://www.w3.org/2000/svg">
<path d="M20 10C20 4.75329 15.7467 0.5 10.5 0.5C5.25329 0.5 1 4.75329 1 10C1 15.2467 5.25329 19.5 10.5 19.5C15.7467 19.5 20 15.2467 20 10Z" stroke="#A4A4A4" stroke-miterlimit="10"/>
<path d="M16 9.00187C16.0001 8.79633 15.9438 8.59468 15.8373 8.41883C15.7308 8.24299 15.5781 8.09966 15.3958 8.00442C15.1046 7.85586 14.8759 7.60863 14.7504 7.30696C14.7504 7.27321 14.7241 7.23946 14.7091 7.20571C14.5811 6.89961 14.5665 6.55793 14.6678 6.24201C14.728 6.04656 14.7338 5.83839 14.6845 5.63991C14.6352 5.44142 14.5327 5.26012 14.3879 5.11551C14.2432 4.9709 14.0618 4.86844 13.8631 4.81916C13.6645 4.76989 13.4562 4.77565 13.2606 4.83583C12.9444 4.93679 12.6026 4.92217 12.2962 4.79459L12.1948 4.75334C11.8925 4.63008 11.6456 4.40072 11.5006 4.10837C11.4058 3.92507 11.2623 3.77136 11.0859 3.66405C10.9095 3.55675 10.707 3.5 10.5005 3.5C10.294 3.5 10.0915 3.55675 9.91511 3.66405C9.73872 3.77136 9.59527 3.92507 9.50044 4.10837C9.35543 4.40072 9.10855 4.63008 8.80621 4.75334L8.70489 4.79459C8.39848 4.92217 8.05666 4.93679 7.74046 4.83583C7.54463 4.77475 7.33582 4.7683 7.13659 4.81718C6.93735 4.86606 6.75528 4.9684 6.61002 5.11316C6.46476 5.25792 6.36186 5.43959 6.31241 5.63855C6.26297 5.8375 6.26887 6.04617 6.32947 6.24201C6.43371 6.55725 6.42038 6.89952 6.29195 7.20571C6.29195 7.23946 6.26192 7.27321 6.25067 7.30696C6.12408 7.60792 5.8956 7.85481 5.60521 8.00442C5.42273 8.09952 5.26982 8.24279 5.16312 8.41864C5.05642 8.5945 5 8.79622 5 9.00187C5 9.20753 5.05642 9.40925 5.16312 9.58511C5.26982 9.76096 5.42273 9.90423 5.60521 9.99932C5.89614 10.1464 6.125 10.3924 6.25067 10.693C6.25067 10.7268 6.27693 10.7643 6.29195 10.798C6.42046 11.1029 6.43379 11.444 6.32947 11.758C6.26796 11.9541 6.26137 12.1632 6.31042 12.3628C6.35946 12.5623 6.46226 12.7446 6.60767 12.8899C6.75307 13.0352 6.93552 13.138 7.13522 13.187C7.33492 13.236 7.54424 13.2294 7.74046 13.1679C8.05622 13.0658 8.39803 13.0791 8.70489 13.2054L8.80621 13.2504C9.10754 13.3733 9.35414 13.6011 9.50044 13.8916C9.59527 14.0749 9.73872 14.2286 9.91511 14.3359C10.0915 14.4432 10.294 14.5 10.5005 14.5C10.707 14.5 10.9095 14.4432 11.0859 14.3359C11.2623 14.2286 11.4058 14.0749 11.5006 13.8916C11.6469 13.6011 11.8935 13.3733 12.1948 13.2504L12.2962 13.2054C12.603 13.0791 12.9448 13.0658 13.2606 13.1679C13.4566 13.2285 13.6654 13.2344 13.8645 13.185C14.0636 13.1356 14.2454 13.0327 14.3903 12.8876C14.5351 12.7424 14.6376 12.5605 14.6865 12.3614C14.7354 12.1623 14.7289 11.9537 14.6678 11.758C14.5667 11.4433 14.5814 11.1029 14.7091 10.798C14.7091 10.7643 14.7391 10.7268 14.7504 10.693C14.8749 10.3917 15.1041 10.1453 15.3958 9.99932C15.5781 9.90409 15.7308 9.76076 15.8373 9.58492C15.9438 9.40907 16.0001 9.20742 16 9.00187Z" stroke="#A4A4A4" stroke-miterlimit="10"/>
<path d="M10.5 7.5V10.5M12 9H9" stroke="#A4A4A4" stroke-linecap="round" stroke-linejoin="round"/>
<path d="M7.06851 13.5L6.01752 15.5935C6.00402 15.6213 5.99813 15.6526 6.00052 15.6837C6.0029 15.7149 6.01346 15.7448 6.03101 15.7699C6.04855 15.795 6.07236 15.8144 6.09976 15.8259C6.12715 15.8373 6.15702 15.8404 6.18597 15.8348L7.6764 15.5079C7.70808 15.5008 7.74106 15.5045 7.77065 15.5184C7.80024 15.5324 7.82493 15.556 7.84119 15.5857L8.30992 16.4107C8.32361 16.4366 8.34354 16.4582 8.36768 16.4732C8.39181 16.4882 8.41928 16.4961 8.44725 16.4961C8.47521 16.4961 8.50268 16.4882 8.52681 16.4732C8.55095 16.4582 8.57088 16.4366 8.58457 16.4107L9.58429 14.2977M13.9604 13.5584L14.9821 15.5974C14.9959 15.6255 15.0019 15.6572 14.9995 15.6889C14.997 15.7205 14.9861 15.7507 14.968 15.776C14.95 15.8013 14.9255 15.8206 14.8975 15.8317C14.8696 15.8428 14.8392 15.8452 14.81 15.8386L13.3232 15.5118C13.2915 15.504 13.2583 15.5074 13.2286 15.5215C13.1989 15.5355 13.1742 15.5594 13.1584 15.5896L12.686 16.4146C12.6723 16.4405 12.6524 16.462 12.6282 16.4771C12.6041 16.4921 12.5766 16.5 12.5487 16.5C12.5207 16.5 12.4932 16.4921 12.4691 16.4771C12.445 16.462 12.425 16.4405 12.4113 16.4146L11.4849 14.4689" stroke="#A4A4A4" stroke-miterlimit="10"/>
</svg>
