<svg width="12" height="11" viewBox="0 0 12 11" fill="none" xmlns="http://www.w3.org/2000/svg">
<path d="M11.532 5.5C11.8307 5.16533 11.9974 4.73003 12 4.27778C12 3.79155 11.8104 3.32523 11.4728 2.98142C11.1352 2.6376 10.6774 2.44444 10.2 2.44444H7.092C7.18785 2.16833 7.21736 1.87285 7.17805 1.58273C7.13875 1.29262 7.03178 1.01632 6.8661 0.776956C6.70042 0.537597 6.48085 0.342147 6.22577 0.20697C5.9707 0.0717928 5.68754 0.000822257 5.4 0H1.8C1.32261 0 0.864773 0.193154 0.527208 0.536971C0.189642 0.880788 0 1.3471 0 1.83333C0.00264637 2.28559 0.169327 2.72089 0.468 3.05556C0.172827 3.39168 0.00964079 3.82682 0.00964079 4.27778C0.00964079 4.72874 0.172827 5.16388 0.468 5.5C0.172827 5.83612 0.00964079 6.27126 0.00964079 6.72222C0.00964079 7.17318 0.172827 7.60832 0.468 7.94444C0.169327 8.27911 0.00264637 8.71441 0 9.16667C0 9.6529 0.189642 10.1192 0.527208 10.463C0.864773 10.8068 1.32261 11 1.8 11H10.2C10.5467 10.9981 10.8854 10.8943 11.1755 10.7011C11.4657 10.5078 11.6948 10.2334 11.8355 9.91066C11.9762 9.58795 12.0224 9.23074 11.9685 8.88195C11.9147 8.53315 11.7631 8.20761 11.532 7.94444C11.8272 7.60832 11.9904 7.17318 11.9904 6.72222C11.9904 6.27126 11.8272 5.83612 11.532 5.5ZM5.4 9.77778H1.8C1.64087 9.77778 1.48826 9.71339 1.37574 9.59879C1.26321 9.48418 1.2 9.32874 1.2 9.16667C1.2 9.00459 1.26321 8.84915 1.37574 8.73455C1.48826 8.61994 1.64087 8.55556 1.8 8.55556H5.4C5.55913 8.55556 5.71174 8.61994 5.82426 8.73455C5.93679 8.84915 6 9.00459 6 9.16667C6 9.32874 5.93679 9.48418 5.82426 9.59879C5.71174 9.71339 5.55913 9.77778 5.4 9.77778ZM5.4 7.33333H1.8C1.64087 7.33333 1.48826 7.26895 1.37574 7.15434C1.26321 7.03974 1.2 6.8843 1.2 6.72222C1.2 6.56015 1.26321 6.40471 1.37574 6.2901C1.48826 6.1755 1.64087 6.11111 1.8 6.11111H5.4C5.55913 6.11111 5.71174 6.1755 5.82426 6.2901C5.93679 6.40471 6 6.56015 6 6.72222C6 6.8843 5.93679 7.03974 5.82426 7.15434C5.71174 7.26895 5.55913 7.33333 5.4 7.33333ZM5.4 4.88889H1.8C1.64087 4.88889 1.48826 4.8245 1.37574 4.7099C1.26321 4.59529 1.2 4.43985 1.2 4.27778C1.2 4.1157 1.26321 3.96026 1.37574 3.84566C1.48826 3.73105 1.64087 3.66667 1.8 3.66667H5.4C5.55913 3.66667 5.71174 3.73105 5.82426 3.84566C5.93679 3.96026 6 4.1157 6 4.27778C6 4.43985 5.93679 4.59529 5.82426 4.7099C5.71174 4.8245 5.55913 4.88889 5.4 4.88889ZM5.4 2.44444H1.8C1.64087 2.44444 1.48826 2.38006 1.37574 2.26545C1.26321 2.15085 1.2 1.99541 1.2 1.83333C1.2 1.67126 1.26321 1.51582 1.37574 1.40121C1.48826 1.28661 1.64087 1.22222 1.8 1.22222H5.4C5.55913 1.22222 5.71174 1.28661 5.82426 1.40121C5.93679 1.51582 6 1.67126 6 1.83333C6 1.99541 5.93679 2.15085 5.82426 2.26545C5.71174 2.38006 5.55913 2.44444 5.4 2.44444ZM10.614 9.60055C10.5608 9.65769 10.4965 9.70295 10.4253 9.73346C10.354 9.76397 10.2773 9.77906 10.2 9.77778H7.092C7.23588 9.38355 7.23588 8.94978 7.092 8.55556H10.2C10.3591 8.55556 10.5117 8.61994 10.6243 8.73455C10.7368 8.84915 10.8 9.00459 10.8 9.16667C10.7989 9.24795 10.7819 9.3282 10.7499 9.4027C10.718 9.47721 10.6718 9.54447 10.614 9.60055ZM10.614 7.15611C10.5608 7.21325 10.4965 7.25851 10.4253 7.28901C10.354 7.31952 10.2773 7.33461 10.2 7.33333H7.092C7.23588 6.9391 7.23588 6.50534 7.092 6.11111H10.2C10.3591 6.11111 10.5117 6.1755 10.6243 6.2901C10.7368 6.40471 10.8 6.56015 10.8 6.72222C10.7989 6.80351 10.7819 6.88375 10.7499 6.95826C10.718 7.03276 10.6718 7.10003 10.614 7.15611ZM10.614 4.71167C10.5608 4.7688 10.4965 4.81406 10.4253 4.84457C10.354 4.87508 10.2773 4.89017 10.2 4.88889H7.092C7.23588 4.49466 7.23588 4.0609 7.092 3.66667H10.2C10.3591 3.66667 10.5117 3.73105 10.6243 3.84566C10.7368 3.96026 10.8 4.1157 10.8 4.27778C10.7989 4.35907 10.7819 4.43931 10.7499 4.51381C10.718 4.58832 10.6718 4.65558 10.614 4.71167Z" fill="#3C82D6"/>
</svg>
