<svg width="7" height="7" viewBox="0 0 7 7" fill="none" xmlns="http://www.w3.org/2000/svg">
<path d="M0 0.777778H0.777778V0C0.348056 0 0 0.348056 0 0.777778ZM0 3.88889H0.777778V3.11111H0V3.88889ZM1.55556 7H2.33333V6.22222H1.55556V7ZM0 2.33333H0.777778V1.55556H0V2.33333ZM3.88889 0H3.11111V0.777778H3.88889V0ZM6.22222 0V0.777778H7C7 0.348056 6.65194 0 6.22222 0ZM0.777778 7V6.22222H0C0 6.65194 0.348056 7 0.777778 7ZM0 5.44444H0.777778V4.66667H0V5.44444ZM2.33333 0H1.55556V0.777778H2.33333V0ZM3.11111 7H3.88889V6.22222H3.11111V7ZM6.22222 3.88889H7V3.11111H6.22222V3.88889ZM6.22222 7C6.65194 7 7 6.65194 7 6.22222H6.22222V7ZM6.22222 2.33333H7V1.55556H6.22222V2.33333ZM6.22222 5.44444H7V4.66667H6.22222V5.44444ZM4.66667 7H5.44444V6.22222H4.66667V7ZM4.66667 0.777778H5.44444V0H4.66667V0.777778ZM1.55556 5.44444H5.44444V1.55556H1.55556V5.44444ZM2.33333 2.33333H4.66667V4.66667H2.33333V2.33333Z" fill="black"/>
</svg>
