<svg width="12" height="19" viewBox="0 0 12 19" fill="none" xmlns="http://www.w3.org/2000/svg">
<path d="M7.84615 4.31818V5.18182H4.15384V4.31818H5.53846V0H6.46154V4.31818H7.84615ZM9.23077 12.0909C9.23077 12.6887 9.04128 13.2732 8.68628 13.7702C8.33128 14.2673 7.8267 14.6548 7.23636 14.8835C6.64601 15.1123 5.99641 15.1722 5.36971 15.0556C4.743 14.9389 4.16733 14.651 3.7155 14.2283C3.26367 13.8056 2.95597 13.267 2.83131 12.6806C2.70665 12.0943 2.77063 11.4865 3.01516 10.9342C3.25969 10.3818 3.67378 9.90974 4.20508 9.5776C4.73638 9.24546 5.36101 9.06818 6 9.06818C6.85685 9.06818 7.67861 9.38665 8.2845 9.95352C8.89038 10.5204 9.23077 11.2892 9.23077 12.0909ZM7.38461 10.3636H6.46154V9.93182H5.53846V10.3636H5.07692C4.95451 10.3636 4.83712 10.4091 4.75056 10.4901C4.66401 10.5711 4.61538 10.6809 4.61538 10.7955V12.0909C4.61538 12.2054 4.66401 12.3153 4.75056 12.3963C4.83712 12.4772 4.95451 12.5227 5.07692 12.5227H6.46154V12.9545H4.61538V13.8182H5.53846V14.25H6.46154V13.8182H6.92307C7.04548 13.8182 7.16288 13.7727 7.24943 13.6917C7.33599 13.6107 7.38461 13.5009 7.38461 13.3864V12.0909C7.38461 11.9764 7.33599 11.8665 7.24943 11.7856C7.16288 11.7046 7.04548 11.6591 6.92307 11.6591H5.53846V11.2273H7.38461V10.3636ZM12 6.19227V17.7045C12 18.0481 11.8541 18.3776 11.5944 18.6206C11.3348 18.8635 10.9826 19 10.6154 19H1.38461C1.01739 19 0.66521 18.8635 0.405544 18.6206C0.145878 18.3776 0 18.0481 0 17.7045V6.18795C0 5.72079 0.161949 5.26623 0.461538 4.8925L2.86154 1.9C2.90453 1.84637 2.96027 1.80284 3.02436 1.77286C3.08845 1.74288 3.15912 1.72727 3.23077 1.72727H5.07692V3.88636H3.69231V5.61364H8.30769V3.88636H6.92307V1.72727H8.74154C8.81319 1.72727 8.88385 1.74288 8.94794 1.77286C9.01203 1.80284 9.06777 1.84637 9.11077 1.9L11.5385 4.8925C11.839 5.26741 12.001 5.72363 12 6.19227ZM10.1538 12.0909C10.1538 11.3223 9.91022 10.5709 9.45379 9.93176C8.99736 9.29265 8.34862 8.79453 7.58961 8.50038C6.83059 8.20623 5.99539 8.12926 5.18962 8.27922C4.38386 8.42918 3.64371 8.79932 3.06279 9.34284C2.48186 9.88635 2.08625 10.5788 1.92597 11.3327C1.76569 12.0866 1.84795 12.868 2.16235 13.5782C2.47674 14.2883 3.00915 14.8953 3.69225 15.3223C4.37534 15.7493 5.17844 15.9773 6 15.9773C7.10167 15.9773 8.15821 15.5678 8.93721 14.839C9.71621 14.1101 10.1538 13.1216 10.1538 12.0909Z" fill="black"/>
</svg>
