<svg width="16" height="16" viewBox="0 0 16 16" fill="none" xmlns="http://www.w3.org/2000/svg">
<path fill-rule="evenodd" clip-rule="evenodd" d="M5.4229 15.0259C5.4229 14.3621 5.15919 13.7255 4.68979 13.2561C4.22039 12.7867 3.58375 12.523 2.91992 12.523V11.6888C4.76305 11.6888 6.25733 13.1828 6.25733 15.0259H5.4229ZM9.59473 15.0259C9.59473 14.3621 9.85844 13.7255 10.3278 13.2561C10.7972 12.7867 11.4339 12.523 12.0977 12.523V11.6888C10.2546 11.6888 8.7603 13.1828 8.7603 15.0259H9.59473Z" fill="#445CDA"/>
<path fill-rule="evenodd" clip-rule="evenodd" d="M2.59277 0H12.4251C12.753 0 13.0199 -2.09797e-08 13.2379 0.014705C13.4626 0.0303486 13.6656 0.0625743 13.859 0.142982C14.3189 0.333509 14.6843 0.698935 14.8749 1.15888C14.955 1.35223 14.9875 1.55497 15.0031 1.77993C15.0179 1.99769 15.0179 2.26488 15.0179 2.59277V2.92003C15.0179 3.03069 14.9739 3.13681 14.8957 3.21505C14.8174 3.29329 14.7113 3.33725 14.6006 3.33725C14.49 3.33725 14.3839 3.29329 14.3056 3.21505C14.2274 3.13681 14.1834 3.03069 14.1834 2.92003V2.60716C14.1834 2.26144 14.1834 2.02272 14.1706 1.83656C14.1581 1.65447 14.1352 1.5531 14.1043 1.47801C14.0519 1.35147 13.975 1.2365 13.8782 1.13966C13.7814 1.04281 13.6664 0.965992 13.5398 0.913586C13.4648 0.882612 13.3634 0.859772 13.181 0.847257C12.9948 0.834742 12.7564 0.834117 12.4107 0.834117H2.60716C2.26144 0.834117 2.02303 0.83443 1.83687 0.847257C1.65447 0.859772 1.5531 0.882612 1.47801 0.913586C1.35147 0.965992 1.2365 1.04281 1.13965 1.13966C1.04281 1.2365 0.965992 1.35147 0.913586 1.47801C0.882612 1.5531 0.859772 1.65447 0.847257 1.83656C0.834743 2.02272 0.83443 2.26144 0.83443 2.60716V2.92003C0.83443 3.03069 0.790473 3.13681 0.71223 3.21505C0.633987 3.29329 0.527867 3.33725 0.417215 3.33725C0.306563 3.33725 0.200442 3.29329 0.1222 3.21505C0.0439566 3.13681 3.29769e-09 3.03069 0 2.92003V2.59277C0 2.26488 -2.09797e-08 1.99769 0.014705 1.77993C0.0303486 1.55497 0.0628872 1.35223 0.142982 1.15888C0.333509 0.698935 0.698935 0.333509 1.15888 0.142982C1.35223 0.0625743 1.55497 0.0303486 1.77993 0.014705C1.998 -2.09797e-08 2.26488 0 2.59277 0Z" fill="#2B3151"/>
<path fill-rule="evenodd" clip-rule="evenodd" d="M2.91992 1.66858H12.0977V13.7664C12.0977 14.0983 11.9659 14.4166 11.7312 14.6513C11.4965 14.886 11.1781 15.0179 10.8462 15.0179H4.17141C3.83949 15.0179 3.52117 14.886 3.28647 14.6513C3.05177 14.4166 2.91992 14.0983 2.91992 13.7664V1.66858ZM3.75435 2.50301V13.7664C3.75435 13.9967 3.94114 14.1835 4.17141 14.1835H10.8462C11.0765 14.1835 11.2633 13.9967 11.2633 13.7664V2.50301H3.75435Z" fill="#2B3151"/>
<path fill-rule="evenodd" clip-rule="evenodd" d="M1.66846 2.08595C1.66846 1.85536 1.85524 1.66858 2.08583 1.66858H12.9318C13.0425 1.66858 13.1486 1.71254 13.2269 1.79078C13.3051 1.86902 13.3491 1.97514 13.3491 2.08579C13.3491 2.19645 13.3051 2.30257 13.2269 2.38081C13.1486 2.45905 13.0425 2.50301 12.9318 2.50301H2.08583C2.03103 2.50305 1.97677 2.49229 1.92613 2.47135C1.87549 2.45041 1.82948 2.4197 1.79072 2.38097C1.75196 2.34223 1.72121 2.29624 1.70023 2.24562C1.67925 2.195 1.66846 2.14075 1.66846 2.08595Z" fill="#2B3151"/>
<path fill-rule="evenodd" clip-rule="evenodd" d="M5.42298 2.50293C5.42298 3.05615 5.64275 3.58671 6.03394 3.9779C6.42512 4.36908 6.95568 4.58885 7.5089 4.58885C8.06212 4.58885 8.59268 4.36908 8.98387 3.9779C9.37505 3.58671 9.59482 3.05615 9.59482 2.50293H10.4289C10.4289 2.88639 10.3534 3.2661 10.2067 3.62038C10.0599 3.97465 9.84483 4.29656 9.57368 4.56771C9.30253 4.83886 8.98062 5.05394 8.62635 5.20069C8.27207 5.34744 7.89237 5.42296 7.5089 5.42296C7.12544 5.42296 6.74573 5.34744 6.39145 5.20069C6.03718 5.05394 5.71528 4.83886 5.44413 4.56771C5.17298 4.29656 4.95789 3.97465 4.81114 3.62038C4.6644 3.2661 4.58887 2.88639 4.58887 2.50293H5.42298Z" fill="#445CDA"/>
</svg>
