<svg width="20" height="18" viewBox="0 0 20 18" fill="none" xmlns="http://www.w3.org/2000/svg">
<path fill-rule="evenodd" clip-rule="evenodd" d="M20 15.8045C20 16.3868 19.771 16.9452 19.3633 17.357C18.9556 17.7687 18.4026 18 17.8261 18H2.17391C1.88843 18 1.60574 17.9432 1.34199 17.8329C1.07824 17.7225 0.838591 17.5608 0.636724 17.357C0.229037 16.9452 0 16.3868 0 15.8045V3.07089C0 2.60507 0.183229 2.15833 0.50938 1.82895C0.83553 1.49957 1.27788 1.31452 1.73913 1.31452H10.5091L14.0304 0.0262285C14.1375 -0.0131405 14.2557 -0.00802353 14.359 0.0404574C14.4624 0.0889383 14.5425 0.176827 14.5817 0.284853L14.9526 1.31452H16.5217C16.983 1.31452 17.4253 1.49957 17.7515 1.82895C18.0776 2.15833 18.2609 2.60507 18.2609 3.07089V3.94907C18.7221 3.94907 19.1645 4.13412 19.4906 4.4635C19.8168 4.79288 20 5.23962 20 5.70544V15.8045ZM1.73913 2.19271C1.50851 2.19271 1.28733 2.28523 1.12425 2.44992C0.96118 2.61461 0.869565 2.83798 0.869565 3.07089C0.869565 3.3038 0.96118 3.52717 1.12425 3.69186C1.28733 3.85655 1.50851 3.94907 1.73913 3.94907H3.31913C3.32478 3.94688 3.32826 3.94205 3.33391 3.93985L8.1087 2.19271H1.73913ZM14.3817 2.27218L13.92 0.988278L13.0278 1.31452H13.0291L10.6317 2.19271H10.6274L5.82783 3.94907H14.9852L14.3817 2.27218ZM17.3913 3.07089C17.3913 2.83798 17.2997 2.61461 17.1366 2.44992C16.9735 2.28523 16.7524 2.19271 16.5217 2.19271H15.2683L15.9004 3.94907H17.3913V3.07089ZM18.2609 4.82725H1.73913C1.42087 4.82725 1.12609 4.73461 0.869565 4.58356V15.8045C0.869565 16.1539 1.00699 16.489 1.2516 16.736C1.49621 16.983 1.82798 17.1218 2.17391 17.1218H17.8261C18.172 17.1218 18.5038 16.983 18.7484 16.736C18.993 16.489 19.1304 16.1539 19.1304 15.8045V12.7309H17.3913C16.9301 12.7309 16.4877 12.5459 16.1616 12.2165C15.8354 11.8871 15.6522 11.4404 15.6522 10.9745C15.6522 10.5087 15.8354 10.062 16.1616 9.7326C16.4877 9.40322 16.9301 9.21817 17.3913 9.21817H19.1304V5.70544C19.1304 5.47253 19.0388 5.24916 18.8757 5.08447C18.7127 4.91978 18.4915 4.82725 18.2609 4.82725ZM19.1304 11.8527V10.0964H17.3913C17.1607 10.0964 16.9395 10.1889 16.7764 10.3536C16.6134 10.5183 16.5217 10.7416 16.5217 10.9745C16.5217 11.2074 16.6134 11.4308 16.7764 11.5955C16.9395 11.7602 17.1607 11.8527 17.3913 11.8527H19.1304ZM17.3913 10.5354H18.2609V11.4136H17.3913V10.5354Z" fill="#A4A4A4"/>
</svg>
