<svg width="19" height="20" viewBox="0 0 19 20" fill="none" xmlns="http://www.w3.org/2000/svg">
<path d="M8.8255 13.5245C8.91585 13.611 9.02238 13.6788 9.139 13.724C9.37029 13.819 9.62971 13.819 9.861 13.724C9.97761 13.6788 10.0841 13.611 10.1745 13.5245L13.0245 10.6745C13.2034 10.4956 13.3039 10.253 13.3039 10C13.3039 9.74702 13.2034 9.50439 13.0245 9.3255C12.8456 9.14661 12.603 9.04612 12.35 9.04612C12.097 9.04612 11.8544 9.14661 11.6755 9.3255L10.45 10.5605V7.15C10.45 6.89805 10.3499 6.65641 10.1717 6.47825C9.99359 6.30009 9.75195 6.2 9.5 6.2C9.24804 6.2 9.00641 6.30009 8.82825 6.47825C8.65009 6.65641 8.55 6.89805 8.55 7.15V10.5605L7.3245 9.3255C7.23618 9.23646 7.13111 9.16579 7.01535 9.11756C6.89958 9.06933 6.77541 9.04449 6.65 9.04449C6.52459 9.04449 6.40042 9.06933 6.28465 9.11756C6.16888 9.16579 6.06381 9.23646 5.9755 9.3255C5.88646 9.41382 5.81578 9.51889 5.76755 9.63465C5.71932 9.75042 5.69449 9.87459 5.69449 10C5.69449 10.1254 5.71932 10.2496 5.76755 10.3654C5.81578 10.4811 5.88646 10.5862 5.9755 10.6745L8.8255 13.5245ZM9.5 19.5C11.3789 19.5 13.2156 18.9428 14.7779 17.899C16.3402 16.8551 17.5578 15.3714 18.2769 13.6355C18.9959 11.8996 19.184 9.98946 18.8175 8.14665C18.4509 6.30383 17.5461 4.61109 16.2175 3.28249C14.8889 1.95389 13.1962 1.0491 11.3534 0.682544C9.51054 0.315985 7.6004 0.504116 5.86451 1.22315C4.12861 1.94218 2.64491 3.15982 1.60104 4.72209C0.557165 6.28435 0 8.12108 0 10C0 12.5196 1.00089 14.9359 2.78248 16.7175C3.66464 17.5997 4.71191 18.2994 5.86451 18.7769C7.0171 19.2543 8.25244 19.5 9.5 19.5ZM9.5 2.4C11.0031 2.4 12.4725 2.84574 13.7223 3.68083C14.9721 4.51593 15.9463 5.70289 16.5215 7.09161C17.0967 8.48033 17.2472 10.0084 16.954 11.4827C16.6607 12.9569 15.9369 14.3111 14.874 15.374C13.8111 16.4369 12.4569 17.1607 10.9827 17.454C9.50843 17.7472 7.98032 17.5967 6.5916 17.0215C5.20289 16.4463 4.01593 15.4721 3.18083 14.2223C2.34573 12.9725 1.9 11.5031 1.9 10C1.9 7.98436 2.70071 6.05127 4.12599 4.62599C5.55126 3.20072 7.48435 2.4 9.5 2.4Z" fill="#212121"/>
</svg>
