<svg width="28" height="23" viewBox="0 0 28 23" fill="none" xmlns="http://www.w3.org/2000/svg">
<path d="M23.9478 8.2514C23.4604 8.2514 23.0634 7.85251 23.0569 7.35609V6.04942C23.0728 4.94027 22.6545 3.87032 21.8946 3.0758C21.1346 2.28129 20.0954 1.82757 19.0064 1.81482H18.0562C17.5642 1.81482 17.1653 1.40856 17.1653 0.907412C17.1653 0.406262 17.5642 1.62839e-08 18.0562 1.62839e-08H19.0064C22.2587 0.0397543 24.8745 2.73656 24.8743 6.04942V7.34399C24.8807 7.5824 24.7922 7.81331 24.6289 7.98422C24.4656 8.15513 24.2413 8.25149 24.0072 8.2514H23.9478ZM3.16083 8.25148C2.92566 8.25464 2.69902 8.16174 2.5316 7.99349C2.36418 7.82523 2.26994 7.59565 2.26996 7.35609V6.04942C2.25091 4.45172 2.86071 2.91278 3.96322 1.77616C5.06573 0.639537 6.56915 -0.000117842 8.13783 1.62839e-08H9.11185C9.60386 1.62839e-08 10.0027 0.406262 10.0027 0.907412C10.0027 1.40856 9.60386 1.81482 9.11185 1.81482H8.14971C7.05148 1.8114 5.99813 2.25842 5.22717 3.05507C4.45621 3.85173 4.03254 4.93096 4.0517 6.04942V7.35609C4.04521 7.85251 3.64825 8.25148 3.16083 8.25148Z" fill="white"/>
<path d="M24.8374 13.6112V17.011C24.7994 20.2816 22.216 22.9292 19.0052 22.9878H18.0431C17.7024 23.0281 17.3694 22.8656 17.1866 22.5701C17.0038 22.2745 17.0038 21.8984 17.1866 21.6028C17.3694 21.3073 17.7024 21.1448 18.0431 21.1851H19.0052C21.2704 21.1784 23.1032 19.3061 23.1032 16.9989V13.6112H24.8374ZM10.0015 22.0925C9.9951 22.5909 9.59997 22.9934 9.11063 22.9999H8.13661C4.88438 22.9601 2.26851 20.2633 2.26875 16.9505V13.6112H4.05049V17.011C4.05045 19.3135 5.87607 21.1839 8.13661 21.1972H9.11063C9.3458 21.1939 9.57244 21.2868 9.73986 21.4551C9.90728 21.6233 10.0015 21.8529 10.0015 22.0925ZM27.0587 12.7038C27.0587 13.2049 26.6598 13.6112 26.1678 13.6112H0.89087C0.398856 13.6112 0 13.2049 0 12.7038C0 12.2026 0.398856 11.7964 0.89087 11.7964H26.1322C26.3746 11.7865 26.6104 11.8777 26.7853 12.049C26.9601 12.2202 27.0587 12.4567 27.0587 12.7038Z" fill="white"/>
<path d="M19.717 9.60661V8.04586C19.717 7.29179 19.4229 6.56861 18.8994 6.0354C18.3759 5.50219 17.6659 5.20264 16.9256 5.20264H10.1312C8.58959 5.20264 7.33984 6.47559 7.33984 8.04586V9.60661C7.34599 9.79105 7.49136 9.93912 7.67243 9.94538H19.3844C19.5655 9.93912 19.7108 9.79105 19.717 9.60661Z" fill="white"/>
<path d="M19.717 13.6113V14.9664C19.717 16.5367 18.4672 17.8096 16.9256 17.8096H10.1312C8.58959 17.8096 7.33984 16.5367 7.33984 14.9664V13.6113H19.717Z" fill="white"/>
</svg>
