<svg width="20" height="20" viewBox="0 0 20 20" fill="none" xmlns="http://www.w3.org/2000/svg">
<path d="M16.2519 0H3.74813C2.75406 0 1.80071 0.394891 1.0978 1.0978C0.394891 1.80071 0 2.75406 0 3.74813V16.2519C0 16.7441 0.0969482 17.2315 0.285309 17.6862C0.47367 18.141 0.749755 18.5542 1.0978 18.9022C1.44585 19.2502 1.85904 19.5263 2.31378 19.7147C2.76852 19.9031 3.25592 20 3.74813 20H16.2519C16.7441 20 17.2315 19.9031 17.6862 19.7147C18.141 19.5263 18.5542 19.2502 18.9022 18.9022C19.2502 18.5542 19.5263 18.141 19.7147 17.6862C19.9031 17.2315 20 16.7441 20 16.2519V3.74813C20 2.75406 19.6051 1.80071 18.9022 1.0978C18.1993 0.394891 17.2459 0 16.2519 0ZM3.74813 1.49925H16.2519C16.5473 1.49886 16.8399 1.55676 17.1129 1.66963C17.386 1.78251 17.634 1.94814 17.8429 2.15705C18.0519 2.36596 18.2175 2.61403 18.3304 2.88705C18.4432 3.16008 18.5011 3.45269 18.5007 3.74813V4.93253H1.49925V3.74813C1.49886 3.45269 1.55676 3.16008 1.66963 2.88705C1.78251 2.61403 1.94814 2.36596 2.15705 2.15705C2.36596 1.94814 2.61403 1.78251 2.88705 1.66963C3.16008 1.55676 3.45269 1.49886 3.74813 1.49925ZM13.2684 11.0195L11.4543 13.7331C11.2282 14.0714 10.9228 14.3492 10.5649 14.5426C10.2069 14.7359 9.80713 14.8389 9.4003 14.8426H9.38531C8.98104 14.8429 8.58277 14.7448 8.22491 14.5567C7.86705 14.3686 7.56036 14.0963 7.33134 13.7631L6.73163 12.8936C6.67552 12.8118 6.63605 12.7199 6.61548 12.6229C6.59491 12.526 6.59363 12.4259 6.61173 12.3285C6.62983 12.231 6.66695 12.1381 6.72096 12.055C6.77497 11.9718 6.84483 11.9002 6.92654 11.8441C7.00824 11.788 7.1002 11.7485 7.19716 11.7279C7.29413 11.7074 7.39419 11.7061 7.49164 11.7242C7.58909 11.7423 7.68203 11.7794 7.76514 11.8334C7.84824 11.8874 7.9199 11.9573 7.97601 12.039L8.56072 12.9085C8.65352 13.0415 8.77679 13.1504 8.92023 13.226C9.06368 13.3017 9.22315 13.3419 9.38531 13.3433C9.54986 13.3458 9.71224 13.3056 9.85672 13.2268C10.0012 13.148 10.1229 13.0332 10.2099 12.8936L12.024 10.1799C12.1334 10.0149 12.3038 9.90017 12.4978 9.86081C12.6918 9.82145 12.8934 9.86073 13.0585 9.97001C13.2232 10.0832 13.3373 10.2562 13.3765 10.4521C13.4157 10.6481 13.3769 10.8517 13.2684 11.0195Z" fill="#3C82D6"/>
</svg>
