<svg width="19" height="20" viewBox="0 0 19 20" fill="none" xmlns="http://www.w3.org/2000/svg">
<g clip-path="url(#clip0_17_1368)">
<path d="M0.0192218 10.593C0.111269 12.1325 0.579641 13.626 1.38326 14.9424C2.17493 16.2478 3.2706 17.3427 4.56893 18.1375C6.03569 19.0174 7.7115 19.4878 9.42185 19.5H9.56435C14.5859 19.466 18.6661 15.5464 18.9765 10.5953C18.9876 10.4053 19.0002 10.2027 19.0002 10.0127C19.0002 9.82267 19.0002 9.62079 18.9876 9.43079L18.9662 9.41337L18.9654 9.41496C18.6653 4.45992 14.5685 0.530875 9.54772 0.5H9.4353C7.66197 0.512667 6.00264 1.00667 4.58635 1.86563C3.2775 2.6582 2.17861 3.75411 1.38247 5.06079C0.371409 6.72138 -0.104519 8.65273 0.0192218 10.593ZM1.38326 8.87663C1.62626 7.11671 2.43479 5.48349 3.68697 4.22318C4.93914 2.96287 6.56709 2.14377 8.32539 1.88938L8.41643 1.89729C9.04976 1.93133 9.57622 2.23771 9.50101 4.08704V7.11992C9.4931 8.366 10.2096 9.5535 10.9711 10.004C10.2096 10.4473 9.4923 11.4891 9.50022 12.8833V15.9217C9.57622 17.7757 9.04897 18.0845 8.41564 18.113C8.38872 18.113 8.36339 18.1154 8.33647 18.1162C6.57592 17.8636 4.94534 17.0451 3.69099 15.7841C2.43663 14.5232 1.62661 12.8884 1.38326 11.1265C1.27715 10.3803 1.27715 9.62284 1.38326 8.87663Z" fill="#A4A4A4"/>
</g>
<defs>
<clipPath id="clip0_17_1368">
<rect width="19" height="19" fill="white" transform="translate(0 0.5)"/>
</clipPath>
</defs>
</svg>
