<svg width="26" height="23" viewBox="0 0 26 23" fill="none" xmlns="http://www.w3.org/2000/svg">
<path d="M15.3843 5.81468e-08H10.6157C9.81317 -0.000140034 9.03098 0.252863 8.37989 0.723173C7.72879 1.19348 7.2418 1.85725 6.9879 2.62047L6.25684 4.82387L2.11367 6.9C1.47688 7.21622 0.941275 7.70511 0.567662 8.31114C0.19405 8.91718 -0.00260387 9.61609 2.60361e-05 10.3285V19.1667C2.60361e-05 20.1833 0.40286 21.1584 1.11991 21.8772C1.83696 22.5961 2.80949 23 3.82355 23H22.1765C23.1905 23 24.163 22.5961 24.8801 21.8772C25.5971 21.1584 26 20.1833 26 19.1667V10.3285C26.0026 9.61609 25.806 8.91718 25.4323 8.31114C25.0587 7.70511 24.5231 7.21622 23.8863 6.9L19.7432 4.82387L19.0121 2.62047C18.7582 1.85725 18.2712 1.19348 17.6201 0.723173C16.969 0.252863 16.1868 -0.000140034 15.3843 5.81468e-08ZM3.82355 21.4667C3.21511 21.4667 2.63159 21.2243 2.20136 20.793C1.77113 20.3617 1.52943 19.7767 1.52943 19.1667V10.3285C1.52907 9.90248 1.64763 9.48483 1.87169 9.12281C2.09575 8.76079 2.41638 8.46885 2.79731 8.28L7.2326 6.05973C7.32248 6.01477 7.40265 5.95249 7.46851 5.87646C7.53438 5.80042 7.58466 5.71212 7.61648 5.6166L8.44848 3.1142C8.59884 2.65621 8.88897 2.25717 9.27786 1.97349C9.66675 1.68981 10.1347 1.53584 10.6157 1.53333H15.3843C15.8656 1.5337 16.3346 1.68581 16.7249 1.96815C17.1152 2.25048 17.4071 2.64873 17.5592 3.10653L18.3912 5.60893C18.423 5.70445 18.4733 5.79275 18.5391 5.86879C18.605 5.94482 18.6852 6.0071 18.775 6.05207L23.2027 8.28C23.5836 8.46885 23.9042 8.76079 24.1283 9.12281C24.3524 9.48483 24.4709 9.90248 24.4706 10.3285V19.1667C24.4706 19.7767 24.2289 20.3617 23.7986 20.793C23.3684 21.2243 22.7849 21.4667 22.1765 21.4667H3.82355ZM13 9.2C12.7972 9.2 12.6027 9.28077 12.4593 9.42455C12.3159 9.56833 12.2353 9.76333 12.2353 9.96667V12.2667H9.94118C9.73837 12.2667 9.54386 12.3474 9.40045 12.4912C9.25704 12.635 9.17648 12.83 9.17648 13.0333C9.17648 13.2367 9.25704 13.4317 9.40045 13.5754C9.54386 13.7192 9.73837 13.8 9.94118 13.8H12.2353V16.1C12.2353 16.3033 12.3159 16.4983 12.4593 16.6421C12.6027 16.7859 12.7972 16.8667 13 16.8667C13.2028 16.8667 13.3973 16.7859 13.5407 16.6421C13.6841 16.4983 13.7647 16.3033 13.7647 16.1V13.8H16.0588C16.2616 13.8 16.4561 13.7192 16.5995 13.5754C16.743 13.4317 16.8235 13.2367 16.8235 13.0333C16.8235 12.83 16.743 12.635 16.5995 12.4912C16.4561 12.3474 16.2616 12.2667 16.0588 12.2667H13.7647V9.96667C13.7647 9.76333 13.6841 9.56833 13.5407 9.42455C13.3973 9.28077 13.2028 9.2 13 9.2Z" fill="#3C82D6"/>
</svg>
