<svg width="20" height="24" viewBox="0 0 20 24" fill="none" xmlns="http://www.w3.org/2000/svg">
<path d="M19.3079 5.7533H13.9678V0.413217C13.9678 0.304273 13.9245 0.19979 13.8475 0.122755C13.7705 0.0457195 13.666 0.00244141 13.557 0.00244141H2.05531C1.94636 0.00244141 1.84188 0.0457195 1.76484 0.122755C1.68781 0.19979 1.64453 0.304273 1.64453 0.413217V11.9149C1.64453 12.0239 1.68781 12.1284 1.76484 12.2054C1.84188 12.2824 1.94636 12.3257 2.05531 12.3257H13.1463V18.8981H2.05531C1.94636 18.8981 1.84188 18.9414 1.76484 19.0184C1.68781 19.0955 1.64453 19.2 1.64453 19.3089V22.5951C1.64453 22.7041 1.68781 22.8085 1.76484 22.8856C1.84188 22.9626 1.94636 23.0059 2.05531 23.0059H19.3079C19.4168 23.0059 19.5213 22.9626 19.5984 22.8856C19.6754 22.8085 19.7187 22.7041 19.7187 22.5951V6.16408C19.7187 6.05514 19.6754 5.95065 19.5984 5.87362C19.5213 5.79658 19.4168 5.7533 19.3079 5.7533Z" fill="#EEEEEE"/>
<path d="M13.5556 11.5042H0.410776C0.183911 11.5042 0 11.6881 0 11.9149V19.3089C0 19.5358 0.183911 19.7197 0.410776 19.7197H13.5556C13.7825 19.7197 13.9664 19.5358 13.9664 19.3089V11.9149C13.9664 11.6881 13.7825 11.5042 13.5556 11.5042Z" fill="#66BB6A"/>
<path d="M19.5978 5.87238L13.847 0.121514C13.7895 0.0635826 13.7161 0.0240739 13.6361 0.00802503C13.5561 -0.00802384 13.4731 0.000114243 13.3978 0.0314017C13.3224 0.0626892 13.2581 0.115709 13.213 0.1837C13.1679 0.251692 13.1441 0.331575 13.1445 0.413165V6.16403C13.1445 6.27297 13.1878 6.37746 13.2649 6.45449C13.3419 6.53153 13.4464 6.5748 13.5553 6.5748H19.3062C19.3878 6.57528 19.4677 6.55144 19.5356 6.50634C19.6036 6.46124 19.6567 6.39691 19.6879 6.32155C19.7192 6.2462 19.7274 6.16323 19.7113 6.08324C19.6953 6.00324 19.6558 5.92983 19.5978 5.87238Z" fill="#E0E0E0"/>
<path d="M4.518 16.1542H5.2574C5.2316 16.3804 5.14658 16.5958 5.01093 16.7786C4.88086 16.9479 4.71173 17.0832 4.518 17.1729C4.31047 17.2679 4.08488 17.3169 3.85665 17.3167C3.64411 17.3249 3.43231 17.287 3.23587 17.2054C3.03943 17.1238 2.86302 17.0006 2.7188 16.8443C2.4143 16.508 2.25486 16.0652 2.27516 15.612C2.25698 15.1606 2.41285 14.7194 2.71059 14.3796C2.84811 14.223 3.01834 14.0983 3.20926 14.0146C3.40018 13.9308 3.60715 13.89 3.81557 13.8949C4.02517 13.8902 4.2333 13.9311 4.42552 14.0148C4.61774 14.0985 4.78946 14.223 4.92878 14.3796C5.10389 14.5846 5.21651 14.8355 5.25329 15.1026H4.518C4.48154 14.9577 4.39587 14.8299 4.27564 14.7411C4.14155 14.6536 3.98387 14.6091 3.82379 14.6138C3.70722 14.6106 3.59145 14.634 3.48536 14.6825C3.37927 14.7309 3.28567 14.8029 3.21173 14.8931C3.0521 15.0978 2.97056 15.3526 2.9817 15.612C2.97064 15.8727 3.05539 16.1284 3.21995 16.3308C3.29513 16.4203 3.38964 16.4916 3.49638 16.5393C3.60311 16.587 3.71928 16.6098 3.83611 16.6061C3.98335 16.6146 4.12939 16.5752 4.25234 16.4937C4.37528 16.4123 4.46849 16.2931 4.518 16.1542ZM5.8941 16.2774H6.57188C6.60062 16.4142 6.6792 16.5353 6.79233 16.6173C6.90546 16.6993 7.04505 16.7363 7.18394 16.7211C7.31246 16.7277 7.43955 16.6915 7.54542 16.6184C7.5887 16.587 7.62366 16.5455 7.64728 16.4976C7.67091 16.4496 7.68247 16.3966 7.68097 16.3432C7.68483 16.2721 7.66463 16.2019 7.62364 16.1437C7.58265 16.0856 7.52325 16.043 7.45505 16.0227C7.42492 16.0227 7.288 15.9817 7.04427 15.8995C6.78651 15.8441 6.53952 15.747 6.31309 15.612C6.2038 15.5323 6.11588 15.4269 6.05712 15.305C5.99836 15.1832 5.97058 15.0488 5.97625 14.9137C5.97068 14.7766 5.99539 14.64 6.04865 14.5137C6.1019 14.3873 6.18237 14.2742 6.28434 14.1825C6.51291 13.989 6.80692 13.8906 7.10589 13.9073C7.40077 13.896 7.69064 13.9858 7.92744 14.1619C8.03099 14.2376 8.11538 14.3364 8.17387 14.4506C8.23236 14.5647 8.26332 14.6909 8.26428 14.8192H7.57828C7.55643 14.7166 7.49618 14.6263 7.40987 14.5667C7.32357 14.5071 7.21775 14.4828 7.1141 14.4988C7.00161 14.4934 6.89048 14.5251 6.79781 14.5891C6.75988 14.6169 6.72925 14.6535 6.7085 14.6957C6.68776 14.7379 6.67753 14.7845 6.67868 14.8315C6.67564 14.8838 6.68804 14.9358 6.71433 14.9811C6.74063 15.0264 6.77965 15.0629 6.82656 15.0862C6.99144 15.1551 7.16374 15.2047 7.34003 15.2341C7.56815 15.2722 7.78781 15.3501 7.98906 15.4641C8.11996 15.5477 8.22672 15.6641 8.29877 15.8018C8.37083 15.9394 8.40566 16.0934 8.39983 16.2487C8.40665 16.422 8.36725 16.5939 8.28568 16.747C8.20411 16.9 8.08331 17.0286 7.93566 17.1195C7.70308 17.255 7.43639 17.3206 7.16751 17.3085C6.96368 17.3265 6.75856 17.2936 6.57067 17.2125C6.38278 17.1315 6.21802 17.0049 6.09127 16.8443C5.97824 16.6753 5.91037 16.4801 5.8941 16.2774ZM9.96489 17.2551L8.73256 13.9689H9.46785L10.2689 16.1871L10.9549 13.9689H11.6737L10.5852 17.2551H9.96489Z" fill="white"/>
</svg>
