<svg width="22" height="18" viewBox="0 0 22 18" fill="none" xmlns="http://www.w3.org/2000/svg">
<path d="M21.5757 5.0793H20.3172V1.88788C20.3172 1.52828 20.0475 1.25859 19.6879 1.25859H1.9328C1.57321 1.25859 1.30351 1.52828 1.30351 1.88788V5.0793H0.0449219V1.88788C0.0449219 0.854041 0.898963 0 1.9328 0H19.6879C20.7217 0 21.5757 0.854041 21.5757 1.88788V5.0793ZM18.3843 17.8H3.14644C2.1126 17.8 1.25856 16.946 1.25856 15.9121V5.12425H2.51715V15.9121C2.51715 16.2717 2.78684 16.5414 3.14644 16.5414H18.3843C18.7439 16.5414 19.0136 16.2717 19.0136 15.9121V5.12425H20.2722V15.9121C20.3172 16.946 19.4631 17.8 18.3843 17.8Z" fill="#212121"/>
<path d="M13.3051 8.89997H8.22576C7.86617 8.89997 7.59647 8.63028 7.59647 8.27068C7.59647 7.91109 7.86617 7.64139 8.22576 7.64139H13.3051C13.6647 7.64139 13.9344 7.91109 13.9344 8.27068C13.9344 8.63028 13.6647 8.89997 13.3051 8.89997ZM0 3.82068H21.5758V5.07926H0V3.82068Z" fill="#212121"/>
</svg>
