<svg width="16" height="17" viewBox="0 0 16 17" fill="none" xmlns="http://www.w3.org/2000/svg">
<path d="M10.4 4.78125H9.86667C9.72522 4.78125 9.58956 4.72528 9.48954 4.62565C9.38952 4.52602 9.33333 4.3909 9.33333 4.25C9.33333 4.17955 9.30524 4.11199 9.25523 4.06218C9.20522 4.01236 9.13739 3.98438 9.06667 3.98438C8.99594 3.98438 8.92811 4.01236 8.87811 4.06218C8.8281 4.11199 8.8 4.17955 8.8 4.25C8.8 4.53179 8.91238 4.80204 9.11242 5.0013C9.31246 5.20056 9.58377 5.3125 9.86667 5.3125V5.57813C9.86667 5.64857 9.89476 5.71614 9.94477 5.76595C9.99478 5.81577 10.0626 5.84375 10.1333 5.84375C10.2041 5.84375 10.2719 5.81577 10.3219 5.76595C10.3719 5.71614 10.4 5.64857 10.4 5.57813V5.3125C10.6829 5.3125 10.9542 5.20056 11.1542 5.0013C11.3543 4.80204 11.4667 4.53179 11.4667 4.25C11.4667 3.96821 11.3543 3.69796 11.1542 3.4987C10.9542 3.29944 10.6829 3.1875 10.4 3.1875H9.86667C9.72522 3.1875 9.58956 3.13153 9.48954 3.0319C9.38952 2.93227 9.33333 2.79715 9.33333 2.65625C9.33333 2.51535 9.38952 2.38023 9.48954 2.2806C9.58956 2.18097 9.72522 2.125 9.86667 2.125H10.4C10.5414 2.125 10.6771 2.18097 10.7771 2.2806C10.8771 2.38023 10.9333 2.51535 10.9333 2.65625C10.9333 2.7267 10.9614 2.79426 11.0114 2.84408C11.0614 2.89389 11.1293 2.92188 11.2 2.92188C11.2707 2.92188 11.3386 2.89389 11.3886 2.84408C11.4386 2.79426 11.4667 2.7267 11.4667 2.65625C11.4667 2.37446 11.3543 2.10421 11.1542 1.90495C10.9542 1.70569 10.6829 1.59375 10.4 1.59375V1.32813C10.4 1.25768 10.3719 1.19012 10.3219 1.1403C10.2719 1.09049 10.2041 1.0625 10.1333 1.0625C10.0626 1.0625 9.99478 1.09049 9.94477 1.1403C9.89476 1.19012 9.86667 1.25768 9.86667 1.32813V1.59375C9.58377 1.59375 9.31246 1.70569 9.11242 1.90495C8.91238 2.10421 8.8 2.37446 8.8 2.65625C8.8 2.93804 8.91238 3.20829 9.11242 3.40755C9.31246 3.60681 9.58377 3.71875 9.86667 3.71875H10.4C10.5414 3.71875 10.6771 3.77472 10.7771 3.87435C10.8771 3.97398 10.9333 4.1091 10.9333 4.25C10.9333 4.3909 10.8771 4.52602 10.7771 4.62565C10.6771 4.72528 10.5414 4.78125 10.4 4.78125ZM10.1333 6.90625C10.819 6.90625 11.4892 6.70373 12.0593 6.32429C12.6294 5.94486 13.0737 5.40556 13.3361 4.77458C13.5985 4.1436 13.6672 3.4493 13.5334 2.77945C13.3996 2.10961 13.0695 1.49433 12.5846 1.0114C12.0998 0.52847 11.4821 0.199592 10.8096 0.0663524C10.1372 -0.0668872 9.44015 0.00149619 8.8067 0.262855C8.17325 0.524214 7.63183 0.966809 7.25091 1.53467C6.86998 2.10254 6.66667 2.77016 6.66667 3.45313C6.6678 4.36861 7.0334 5.24627 7.68328 5.89361C8.33316 6.54095 9.21426 6.90513 10.1333 6.90625ZM10.1333 0.531252C10.7135 0.531252 11.2806 0.702616 11.763 1.02368C12.2454 1.34474 12.6214 1.80107 12.8434 2.33497C13.0654 2.86888 13.1235 3.45637 13.0103 4.02316C12.8971 4.58994 12.6177 5.11057 12.2075 5.5192C11.7973 5.92784 11.2746 6.20612 10.7056 6.31886C10.1366 6.4316 9.54679 6.37374 9.0108 6.15259C8.4748 5.93144 8.01667 5.55693 7.69436 5.07643C7.37204 4.59593 7.2 4.03102 7.2 3.45313C7.20099 2.6785 7.51035 1.93588 8.06025 1.38814C8.61014 0.840391 9.35567 0.532236 10.1333 0.531252ZM15.9931 5.01394C15.9885 4.97277 15.9735 4.93345 15.9493 4.89972C15.9493 4.89972 15.9493 4.89388 15.9451 4.89122L15.9413 4.8875C15.9208 4.86091 15.8952 4.83854 15.8661 4.82163C15.8264 4.79641 15.7805 4.78246 15.7333 4.78125H14.1333C14.0626 4.78125 13.9948 4.80924 13.9448 4.85905C13.8948 4.90886 13.8667 4.97643 13.8667 5.04688C13.8667 5.11732 13.8948 5.18489 13.9448 5.2347C13.9948 5.28452 14.0626 5.3125 14.1333 5.3125H14.9493L10.1387 8.959L6.0352 5.63763C5.98572 5.59764 5.92351 5.57663 5.85982 5.57838C5.79614 5.58013 5.73518 5.60454 5.688 5.64719L0.106667 10.6941C0.0795932 10.7172 0.0574499 10.7455 0.0415468 10.7773C0.0256436 10.8091 0.0163038 10.8437 0.0140799 10.8792C0.0118559 10.9146 0.0167929 10.9501 0.0285989 10.9837C0.0404049 11.0172 0.05884 11.048 0.0828135 11.0743C0.106787 11.1006 0.135812 11.1218 0.168171 11.1368C0.20053 11.1517 0.235566 11.16 0.271206 11.1612C0.306846 11.1624 0.342366 11.1565 0.375664 11.1438C0.408963 11.131 0.439363 11.1118 0.465067 11.0872L5.87467 6.19384L9.9632 9.503C10.0096 9.54056 10.0673 9.5615 10.1271 9.56246C10.1869 9.56343 10.2452 9.54436 10.2928 9.50831L15.4667 5.58822V6.64063C15.4667 6.71107 15.4948 6.77864 15.5448 6.82845C15.5948 6.87827 15.6626 6.90625 15.7333 6.90625C15.8041 6.90625 15.8719 6.87827 15.9219 6.82845C15.9719 6.77864 16 6.71107 16 6.64063V5.04688C15.9984 5.03575 15.9961 5.02475 15.9931 5.01394ZM10.9333 10.625H9.33333C9.12116 10.625 8.91768 10.709 8.76765 10.8584C8.61762 11.0078 8.53333 11.2105 8.53333 11.4219V16.7344C8.53333 16.8048 8.56143 16.8724 8.61144 16.9222C8.66145 16.972 8.72928 17 8.8 17H11.4667C11.5374 17 11.6052 16.972 11.6552 16.9222C11.7052 16.8724 11.7333 16.8048 11.7333 16.7344V11.4219C11.7333 11.2105 11.649 11.0078 11.499 10.8584C11.349 10.709 11.1455 10.625 10.9333 10.625ZM11.2 16.4688H9.06667V11.4219C9.06667 11.3514 9.09476 11.2839 9.14477 11.2341C9.19478 11.1842 9.26261 11.1563 9.33333 11.1563H10.9333C11.0041 11.1563 11.0719 11.1842 11.1219 11.2341C11.1719 11.2839 11.2 11.3514 11.2 11.4219V16.4688ZM6.66667 8.5H5.06667C4.85449 8.5 4.65101 8.58396 4.50098 8.7334C4.35095 8.88284 4.26667 9.08553 4.26667 9.29688V16.7344C4.26667 16.8048 4.29476 16.8724 4.34477 16.9222C4.39478 16.972 4.46261 17 4.53333 17H7.2C7.27072 17 7.33855 16.972 7.38856 16.9222C7.43857 16.8724 7.46667 16.8048 7.46667 16.7344V9.29688C7.46667 9.08553 7.38238 8.88284 7.23235 8.7334C7.08232 8.58396 6.87884 8.5 6.66667 8.5ZM6.93333 16.4688H4.8V9.29688C4.8 9.22643 4.8281 9.15886 4.8781 9.10905C4.92811 9.05924 4.99594 9.03125 5.06667 9.03125H6.66667C6.73739 9.03125 6.80522 9.05924 6.85523 9.10905C6.90524 9.15886 6.93333 9.22643 6.93333 9.29688V16.4688ZM2.4 12.2188H0.8C0.587827 12.2188 0.384344 12.3027 0.234315 12.4522C0.0842855 12.6016 0 12.8043 0 13.0156V16.7344C0 16.8048 0.0280951 16.8724 0.0781048 16.9222C0.128115 16.972 0.195942 17 0.266667 17H2.93333C3.00406 17 3.07189 16.972 3.1219 16.9222C3.17191 16.8724 3.2 16.8048 3.2 16.7344V13.0156C3.2 12.8043 3.11571 12.6016 2.96569 12.4522C2.81566 12.3027 2.61217 12.2188 2.4 12.2188ZM2.66667 16.4688H0.533333V13.0156C0.533333 12.9452 0.561429 12.8776 0.611438 12.8278C0.661448 12.778 0.729276 12.75 0.8 12.75H2.4C2.47072 12.75 2.53855 12.778 2.58856 12.8278C2.63857 12.8776 2.66667 12.9452 2.66667 13.0156V16.4688ZM15.2 8.5H13.6C13.3878 8.5 13.1843 8.58396 13.0343 8.7334C12.8843 8.88284 12.8 9.08553 12.8 9.29688V16.7344C12.8 16.8048 12.8281 16.8724 12.8781 16.9222C12.9281 16.972 12.9959 17 13.0667 17H15.7333C15.8041 17 15.8719 16.972 15.9219 16.9222C15.9719 16.8724 16 16.8048 16 16.7344V9.29688C16 9.08553 15.9157 8.88284 15.7657 8.7334C15.6157 8.58396 15.4122 8.5 15.2 8.5ZM15.4667 16.4688H13.3333V9.29688C13.3333 9.22643 13.3614 9.15886 13.4114 9.10905C13.4614 9.05924 13.5293 9.03125 13.6 9.03125H15.2C15.2707 9.03125 15.3386 9.05924 15.3886 9.10905C15.4386 9.15886 15.4667 9.22643 15.4667 9.29688V16.4688Z" fill="#212121"/>
</svg>
