<svg width="15" height="15" viewBox="0 0 15 15" fill="none" xmlns="http://www.w3.org/2000/svg">
<path d="M11.01 11.01C9.99989 11.78 8.76993 12.2065 7.5 12.2273C3.36364 12.2273 1 7.5 1 7.5C1.73503 6.13021 2.75449 4.93345 3.99 3.99M6.25909 2.91455C6.66583 2.81934 7.08226 2.77175 7.5 2.77273C11.6364 2.77273 14 7.5 14 7.5C13.6413 8.17104 13.2135 8.8028 12.7236 9.385M8.75273 8.75273C8.59043 8.9269 8.39472 9.06659 8.17727 9.16348C7.95982 9.26037 7.72508 9.31247 7.48705 9.31667C7.24903 9.32087 7.0126 9.27708 6.79186 9.18793C6.57112 9.09877 6.37061 8.96606 6.20227 8.79773C6.03394 8.62939 5.90123 8.42887 5.81207 8.20814C5.72291 7.9874 5.67913 7.75097 5.68333 7.51295C5.68753 7.27492 5.73963 7.04018 5.83652 6.82273C5.93341 6.60527 6.0731 6.40956 6.24727 6.24727M1 1L14 14" stroke="#212121" stroke-linecap="round" stroke-linejoin="round"/>
</svg>
