<svg width="14" height="12" viewBox="0 0 14 12" fill="none" xmlns="http://www.w3.org/2000/svg">
<path d="M2.07407 1C2.07407 1.375 1.90123 1.66146 1.55556 1.85938V11.75C1.55556 11.8177 1.5299 11.8763 1.47859 11.9258C1.42728 11.9753 1.36651 12 1.2963 12H0.777778C0.707562 12 0.646798 11.9753 0.595486 11.9258C0.544174 11.8763 0.518519 11.8177 0.518519 11.75V1.85938C0.172839 1.66146 0 1.375 0 1C0 0.723958 0.101273 0.488281 0.303819 0.292969C0.506366 0.0976562 0.750772 0 1.03704 0C1.3233 0 1.56771 0.0976562 1.77025 0.292969C1.9728 0.488281 2.07407 0.723958 2.07407 1ZM14 1.5V7.46094C14 7.59115 13.9662 7.69141 13.8987 7.76172C13.8312 7.83203 13.7245 7.90365 13.5787 7.97656C12.4174 8.58073 11.4209 8.88281 10.5891 8.88281C10.2596 8.88281 9.92612 8.82552 9.58854 8.71094C9.25096 8.59635 8.95795 8.47135 8.70949 8.33594C8.46103 8.20052 8.14911 8.07552 7.77373 7.96094C7.39834 7.84635 7.0135 7.78906 6.61921 7.78906C5.58218 7.78906 4.32909 8.16927 2.85995 8.92969C2.76813 8.97656 2.67901 9 2.59259 9C2.45216 9 2.33063 8.95052 2.22801 8.85156C2.12539 8.7526 2.07407 8.63542 2.07407 8.5V2.70312C2.07407 2.53646 2.15779 2.39323 2.32523 2.27344C2.43866 2.20052 2.65201 2.08854 2.96528 1.9375C4.23997 1.3125 5.37693 1 6.37616 1C6.95409 1 7.49421 1.07552 7.99653 1.22656C8.49884 1.3776 9.09028 1.60677 9.77083 1.91406C9.97608 2.01302 10.2137 2.0625 10.4838 2.0625C10.7755 2.0625 11.0928 2.00781 11.4358 1.89844C11.7787 1.78906 12.0758 1.66667 12.327 1.53125C12.5781 1.39583 12.8158 1.27344 13.0399 1.16406C13.2641 1.05469 13.4113 1 13.4815 1C13.6219 1 13.7434 1.04948 13.8461 1.14844C13.9487 1.2474 14 1.36458 14 1.5Z" fill="white"/>
</svg>
