<svg width="21" height="21" viewBox="0 0 21 21" fill="none" xmlns="http://www.w3.org/2000/svg">
<path d="M20.4338 18.1709C20.4338 18.7712 20.1954 19.3468 19.771 19.7712C19.3466 20.1956 18.7709 20.4341 18.1707 20.4341H2.32859C1.72836 20.4341 1.15272 20.1956 0.728293 19.7712C0.303869 19.3468 0.0654297 18.7712 0.0654297 18.1709V2.32882C0.0654297 1.72859 0.303869 1.15295 0.728293 0.728525C1.15272 0.304102 1.72836 0.0656624 2.32859 0.0656624H18.1707C18.7709 0.0656624 19.3466 0.304102 19.771 0.728525C20.1954 1.15295 20.4338 1.72859 20.4338 2.32882V18.1709Z" fill="#77B255"/>
<path d="M12.2471 10.2535L16.9081 5.59252C17.0395 5.46126 17.1438 5.30537 17.215 5.13378C17.2861 4.96218 17.3227 4.77825 17.3227 4.59249C17.3227 4.40673 17.2861 4.2228 17.215 4.0512C17.1438 3.87961 17.0395 3.72372 16.9081 3.59246C16.7768 3.46102 16.621 3.35675 16.4494 3.28561C16.2778 3.21447 16.0938 3.17785 15.9081 3.17785C15.7223 3.17785 15.5384 3.21447 15.3668 3.28561C15.1952 3.35675 15.0393 3.46102 14.908 3.59246L10.2471 8.25343L5.5861 3.59246C5.45498 3.46015 5.29902 3.35504 5.12718 3.28317C4.95533 3.2113 4.77098 3.17407 4.5847 3.17364C4.39843 3.17321 4.21391 3.20957 4.04173 3.28064C3.86955 3.35171 3.7131 3.45609 3.58137 3.58779C3.44963 3.71948 3.34521 3.8759 3.27409 4.04806C3.20297 4.22022 3.16656 4.40473 3.16694 4.59101C3.16732 4.77728 3.20449 4.96164 3.27631 5.13351C3.34814 5.30538 3.4532 5.46137 3.58547 5.59252L8.24701 10.2535L3.57472 14.9258C3.37633 15.1234 3.24109 15.3754 3.18616 15.65C3.13123 15.9245 3.15908 16.2092 3.26618 16.4679C3.37329 16.7266 3.55481 16.9476 3.78773 17.103C4.02066 17.2584 4.29448 17.3411 4.57447 17.3406C4.93658 17.3406 5.29868 17.2025 5.57479 16.9259L10.2471 12.2536L14.908 16.9145C15.0393 17.046 15.1952 17.1503 15.3669 17.2214C15.5386 17.2925 15.7226 17.3289 15.9084 17.3287C16.1882 17.3291 16.4619 17.2463 16.6947 17.091C16.9275 16.9356 17.109 16.7147 17.216 16.4561C17.3231 16.1975 17.351 15.913 17.2962 15.6385C17.2414 15.3641 17.1063 15.1121 16.9081 14.9145L12.2471 10.2535Z" fill="white"/>
</svg>
