<svg width="20" height="20" viewBox="0 0 20 20" fill="none" xmlns="http://www.w3.org/2000/svg">
<path d="M1.50079 13.1C1.73818 12.9821 2.01266 12.9633 2.26392 13.0477C2.51519 13.1321 2.72267 13.3127 2.84079 13.55C3.47372 14.8282 4.43688 15.914 5.63051 16.6948C6.82413 17.4756 8.2048 17.9231 9.62952 17.991C11.0542 18.0588 12.4712 17.7445 13.7336 17.0806C14.996 16.4167 16.058 15.4274 16.8095 14.2151C17.561 13.0028 17.9747 11.6116 18.0078 10.1857C18.0409 8.75975 17.6922 7.35088 16.9978 6.10502C16.3033 4.85915 15.2884 3.82161 14.0582 3.09985C12.828 2.37809 11.4271 1.99837 10.0008 2.00001C8.50967 1.99355 7.04694 2.40764 5.78048 3.19476C4.51402 3.98188 3.49514 5.11012 2.84079 6.45001C2.72144 6.6887 2.51216 6.87021 2.25899 6.9546C2.00581 7.03899 1.72948 7.01936 1.49079 6.90001C1.25209 6.78066 1.07058 6.57138 0.986193 6.31821C0.901802 6.06503 0.921442 5.7887 1.04079 5.55001C2.04418 3.53075 3.70055 1.90987 5.74106 0.950438C7.78158 -0.00899237 10.0864 -0.250651 12.2816 0.264685C14.4767 0.780021 16.4333 2.0221 17.8337 3.78933C19.2341 5.55656 19.9961 7.74519 19.9961 10C19.9961 12.2548 19.2341 14.4435 17.8337 16.2107C16.4333 17.9779 14.4767 19.22 12.2816 19.7353C10.0864 20.2507 7.78158 20.009 5.74106 19.0496C3.70055 18.0901 2.04418 16.4693 1.04079 14.45C0.981195 14.3314 0.94582 14.2021 0.936726 14.0696C0.927631 13.9372 0.944998 13.8043 0.987816 13.6786C1.03063 13.5529 1.09805 13.437 1.18612 13.3377C1.27419 13.2384 1.38116 13.1576 1.50079 13.1ZM1.00079 9.00001H10.5908L8.29079 6.71001C8.19755 6.61677 8.12359 6.50608 8.07313 6.38426C8.02267 6.26244 7.9967 6.13187 7.9967 6.00001C7.9967 5.86815 8.02267 5.73758 8.07313 5.61576C8.12359 5.49394 8.19755 5.38325 8.29079 5.29001C8.38403 5.19677 8.49472 5.12281 8.61654 5.07235C8.73836 5.02189 8.86893 4.99592 9.00079 4.99592C9.13265 4.99592 9.26322 5.02189 9.38504 5.07235C9.50686 5.12281 9.61755 5.19677 9.71079 5.29001L13.7108 9.29001C13.8018 9.38511 13.8732 9.49726 13.9208 9.62001C14.0208 9.86347 14.0208 10.1365 13.9208 10.38C13.8732 10.5028 13.8018 10.6149 13.7108 10.71L9.71079 14.71C9.61782 14.8037 9.50722 14.8781 9.38536 14.9289C9.2635 14.9797 9.1328 15.0058 9.00079 15.0058C8.86878 15.0058 8.73807 14.9797 8.61621 14.9289C8.49435 14.8781 8.38375 14.8037 8.29079 14.71C8.19706 14.617 8.12267 14.5064 8.0719 14.3846C8.02113 14.2627 7.99499 14.132 7.99499 14C7.99499 13.868 8.02113 13.7373 8.0719 13.6154C8.12267 13.4936 8.19706 13.383 8.29079 13.29L10.5908 11H1.00079C0.735571 11 0.481216 10.8947 0.29368 10.7071C0.106144 10.5196 0.000787735 10.2652 0.000787735 10C0.000787735 9.73479 0.106144 9.48044 0.29368 9.2929C0.481216 9.10537 0.735571 9.00001 1.00079 9.00001Z" fill="#212121"/>
</svg>
