<svg width="20" height="18" viewBox="0 0 20 18" fill="none" xmlns="http://www.w3.org/2000/svg">
<path d="M5.14182 2.92231C5.44882 2.92231 5.6977 2.67343 5.6977 2.36643C5.6977 2.05942 5.44882 1.81055 5.14182 1.81055C4.83481 1.81055 4.58594 2.05942 4.58594 2.36643C4.58594 2.67343 4.83481 2.92231 5.14182 2.92231Z" fill="#212121"/>
<path d="M2.04416 2.92231C2.35117 2.92231 2.60004 2.67343 2.60004 2.36643C2.60004 2.05942 2.35117 1.81055 2.04416 1.81055C1.73716 1.81055 1.48828 2.05942 1.48828 2.36643C1.48828 2.67343 1.73716 2.92231 2.04416 2.92231Z" fill="#212121"/>
<path d="M0 16.3058C0.0052941 17.2428 0.76235 17.9999 1.69941 17.9999H17.5711C18.5082 17.9999 19.2652 17.2428 19.2705 16.3058V5.55877H0V16.3058ZM6.34233 7.82464C6.45351 7.71347 6.62292 7.67111 6.77645 7.72406L12.1658 9.51875C12.3882 9.59287 12.51 9.83111 12.4358 10.0535C12.4147 10.117 12.3776 10.1699 12.3353 10.2176L10.837 11.7158L12.9335 13.8123C13.0976 13.9764 13.0976 14.2464 12.9335 14.4105C12.7694 14.5746 12.4994 14.5746 12.3353 14.4105L10.2388 12.314L8.73526 13.8123C8.57115 13.9764 8.30115 13.9764 8.13703 13.8123C8.08938 13.7646 8.05762 13.7117 8.03644 13.6482L6.23645 8.25876C6.1888 8.10523 6.22586 7.93582 6.34233 7.82464ZM8.23232 1.81055C7.92527 1.81055 7.67644 2.05937 7.67644 2.36643C7.67644 2.67349 7.92527 2.92231 8.23232 2.92231C8.53938 2.92231 8.7882 2.67349 8.7882 2.36643C8.7882 2.05937 8.53938 1.81055 8.23232 1.81055Z" fill="#212121"/>
<path d="M9.93308 11.4195H9.93837V11.4142L11.246 10.1065L7.3125 8.79358L8.62544 12.7271L9.93308 11.4195Z" fill="#212121"/>
<path d="M17.5711 0H1.69941C0.76235 0 0.0052941 0.757056 0 1.69411V4.71175H19.2705V1.69411C19.2652 0.757056 18.5082 0 17.5711 0ZM2.04352 3.7694C1.27058 3.7694 0.640586 3.1394 0.640586 2.36646C0.640586 1.59352 1.27058 0.963526 2.04352 0.963526C2.81646 0.963526 3.44646 1.59352 3.44646 2.36646C3.44646 3.1394 2.81646 3.7694 2.04352 3.7694ZM5.14057 3.7694C4.36763 3.7694 3.73763 3.1394 3.73763 2.36646C3.73763 1.59352 4.36763 0.963526 5.14057 0.963526C5.91351 0.963526 6.54351 1.59352 6.54351 2.36646C6.54351 3.1394 5.91351 3.7694 5.14057 3.7694ZM8.23232 3.7694C7.45939 3.7694 6.82939 3.1394 6.82939 2.36646C6.82939 1.59352 7.45939 0.963526 8.23232 0.963526C9.00526 0.963526 9.63526 1.59352 9.63526 2.36646C9.63526 3.1394 9.01056 3.7694 8.23232 3.7694Z" fill="#212121"/>
</svg>
