<svg width="13" height="13" viewBox="0 0 13 13" fill="none" xmlns="http://www.w3.org/2000/svg">
<path d="M6.5 0C2.91056 0 0 2.91056 0 6.5C0 10.0894 2.91056 13 6.5 13C7.09944 13 7.58333 12.5161 7.58333 11.9167C7.58333 11.635 7.47861 11.3822 7.30167 11.1908C7.13194 10.9994 7.03083 10.7503 7.03083 10.4722C7.03083 9.87278 7.51472 9.38889 8.11417 9.38889H9.38889C11.3822 9.38889 13 7.77111 13 5.77778C13 2.58556 10.0894 0 6.5 0ZM2.52778 6.5C1.92833 6.5 1.44444 6.01611 1.44444 5.41667C1.44444 4.81722 1.92833 4.33333 2.52778 4.33333C3.12722 4.33333 3.61111 4.81722 3.61111 5.41667C3.61111 6.01611 3.12722 6.5 2.52778 6.5ZM4.69444 3.61111C4.095 3.61111 3.61111 3.12722 3.61111 2.52778C3.61111 1.92833 4.095 1.44444 4.69444 1.44444C5.29389 1.44444 5.77778 1.92833 5.77778 2.52778C5.77778 3.12722 5.29389 3.61111 4.69444 3.61111ZM8.30556 3.61111C7.70611 3.61111 7.22222 3.12722 7.22222 2.52778C7.22222 1.92833 7.70611 1.44444 8.30556 1.44444C8.905 1.44444 9.38889 1.92833 9.38889 2.52778C9.38889 3.12722 8.905 3.61111 8.30556 3.61111ZM10.4722 6.5C9.87278 6.5 9.38889 6.01611 9.38889 5.41667C9.38889 4.81722 9.87278 4.33333 10.4722 4.33333C11.0717 4.33333 11.5556 4.81722 11.5556 5.41667C11.5556 6.01611 11.0717 6.5 10.4722 6.5Z" fill="white"/>
</svg>
