<svg width="13" height="13" viewBox="0 0 13 13" fill="none" xmlns="http://www.w3.org/2000/svg">
<path d="M2.25 12L1.35 11.1L11.265 1.2L12.165 2.1L2.25 12ZM9.915 12.225C9.42 12.225 8.9675 12.105 8.5575 11.865C8.1525 11.62 7.8275 11.295 7.5825 10.89C7.3375 10.48 7.215 10.025 7.215 9.525C7.215 9.035 7.34 8.585 7.59 8.175C7.84 7.765 8.17 7.4375 8.58 7.1925C8.99 6.9475 9.435 6.825 9.915 6.825C10.41 6.825 10.8625 6.9475 11.2725 7.1925C11.6825 7.4325 12.0075 7.7575 12.2475 8.1675C12.4925 8.5725 12.615 9.025 12.615 9.525C12.615 10.025 12.4925 10.48 12.2475 10.89C12.0075 11.295 11.6825 11.62 11.2725 11.865C10.8625 12.105 10.41 12.225 9.915 12.225ZM9.915 11.0475C10.19 11.0475 10.4425 10.9775 10.6725 10.8375C10.9075 10.6975 11.0925 10.5125 11.2275 10.2825C11.3675 10.0525 11.4375 9.8 11.4375 9.525C11.4375 9.25 11.3675 8.9975 11.2275 8.7675C11.0925 8.5325 10.9075 8.3475 10.6725 8.2125C10.4425 8.0725 10.19 8.0025 9.915 8.0025C9.64 8.0025 9.3875 8.0725 9.1575 8.2125C8.9275 8.3475 8.7425 8.5325 8.6025 8.7675C8.4625 8.9975 8.3925 9.25 8.3925 9.525C8.3925 9.8 8.4625 10.0525 8.6025 10.2825C8.7425 10.5125 8.9275 10.6975 9.1575 10.8375C9.3875 10.9775 9.64 11.0475 9.915 11.0475ZM3.6 6.375C3.105 6.375 2.6525 6.255 2.2425 6.015C1.8325 5.77 1.505 5.445 1.26 5.04C1.02 4.63 0.9 4.175 0.9 3.675C0.9 3.185 1.025 2.735 1.275 2.325C1.525 1.915 1.855 1.5875 2.265 1.3425C2.675 1.0975 3.12 0.975 3.6 0.975C4.095 0.975 4.545 1.0975 4.95 1.3425C5.36 1.5825 5.6875 1.9075 5.9325 2.3175C6.1775 2.7225 6.3 3.175 6.3 3.675C6.3 4.175 6.1775 4.63 5.9325 5.04C5.6875 5.445 5.36 5.77 4.95 6.015C4.545 6.255 4.095 6.375 3.6 6.375ZM3.6 5.1975C3.875 5.1975 4.1275 5.1275 4.3575 4.9875C4.5925 4.8475 4.7775 4.6625 4.9125 4.4325C5.0525 4.2025 5.1225 3.95 5.1225 3.675C5.1225 3.4 5.0525 3.1475 4.9125 2.9175C4.7775 2.6825 4.5925 2.4975 4.3575 2.3625C4.1275 2.2225 3.875 2.1525 3.6 2.1525C3.325 2.1525 3.0725 2.2225 2.8425 2.3625C2.6125 2.4975 2.4275 2.6825 2.2875 2.9175C2.1475 3.1475 2.0775 3.4 2.0775 3.675C2.0775 3.95 2.1475 4.2025 2.2875 4.4325C2.4275 4.6625 2.6125 4.8475 2.8425 4.9875C3.0725 5.1275 3.325 5.1975 3.6 5.1975Z" fill="#212121"/>
</svg>
