<svg width="28" height="28" viewBox="0 0 28 28" fill="none" xmlns="http://www.w3.org/2000/svg">
<path d="M11.4176 22.0876C12.1953 22.3118 13.0007 22.4252 13.81 22.4244H13.8152C14.269 22.4244 14.7221 22.3887 15.1703 22.3175C15.3247 23.1458 15.6492 23.9332 16.1231 24.63L15.8346 27.62H11.786L11.4964 24.6196C10.1833 24.3286 8.93384 23.8019 7.80867 23.0651L5.49504 24.9811L2.6389 22.125L4.55544 19.8113C3.81202 18.6896 3.28462 17.439 3.00037 16.1236L0 15.8346V11.7854L3.00037 11.4964C3.29138 10.1832 3.81827 8.93371 4.55544 7.80867L2.6389 5.49504L5.49504 2.6389L7.80867 4.55487C8.9305 3.81182 10.1811 3.28464 11.4964 3.00037L11.786 0H15.8346L16.1242 3.00037C17.4371 3.29129 18.6864 3.81798 19.8113 4.55487L22.1255 2.6389L24.9455 5.49504L23.0289 7.80867C23.7723 8.93037 24.2997 10.181 24.584 11.4964L27.5844 11.7854V15.8346L24.6984 16.1236L24.6978 16.1242C23.9835 15.6342 23.1734 15.3014 22.3209 15.1478C22.578 13.5102 22.3571 11.8331 21.6848 10.3178C21.0124 8.80253 19.9172 7.51342 18.5304 6.60515C17.1436 5.69688 15.5242 5.20802 13.8665 5.19721C12.2088 5.18641 10.5832 5.65412 9.18471 6.54424C7.78621 7.43436 6.67424 8.70908 5.98219 10.2155C5.29015 11.7218 5.04743 13.3959 5.28316 15.0368C5.51888 16.6777 6.22304 18.2157 7.31116 19.4664C8.39927 20.717 9.82511 21.6272 11.4176 22.0876Z" fill="#FEDB41"/>
<path d="M18.3467 15.7598C19.2837 15.265 20.3326 15.0205 21.3917 15.05C22.4509 15.0794 23.4845 15.3818 24.3926 15.9279C25.3006 16.4739 26.0523 17.2452 26.5749 18.1669C27.0974 19.0887 27.3732 20.1298 27.3754 21.1893C27.3754 24.5799 24.6199 27.3286 21.2213 27.3286C19.7864 27.3306 18.3961 26.8307 17.2911 25.9155C16.186 25.0003 15.4359 23.7275 15.1705 22.3174V22.3168C15.0136 21.4809 15.0326 20.6214 15.2264 19.7932C15.4203 18.965 15.7847 18.1863 16.2963 17.5068L16.3256 17.4689C16.8675 16.7595 17.5571 16.1763 18.3467 15.7598Z" fill="#00ACEA"/>
<path d="M11.2937 18.1029V18.9322C11.2937 19.4902 10.8535 19.9637 10.2955 19.97C10.162 19.9714 10.0296 19.9464 9.90582 19.8963C9.78208 19.8462 9.66948 19.7722 9.57453 19.6783C9.47958 19.5845 9.40416 19.4728 9.35263 19.3497C9.30109 19.2265 9.27447 19.0944 9.27428 18.9609V13.9095C9.24755 13.645 9.27659 13.3778 9.35953 13.1251C9.44246 12.8725 9.57745 12.6401 9.75578 12.4429C9.9341 12.2456 10.1518 12.088 10.3948 11.9801C10.6379 11.8722 10.9008 11.8165 11.1667 11.8166H12.189L13.8108 13.3935L15.4911 11.8166H16.4548C16.7207 11.8166 16.9836 11.8724 17.2265 11.9803C17.4695 12.0882 17.6871 12.2458 17.8654 12.443C18.0437 12.6403 18.1786 12.8727 18.2615 13.1253C18.3444 13.3779 18.3734 13.645 18.3467 13.9095V15.76C17.5571 16.1765 16.8674 16.7596 16.3255 17.469L16.2962 17.507C15.9382 17.983 15.6513 18.5086 15.4446 19.0672H11.3282L11.2994 18.1029H11.2937ZM15.5767 8.45241V9.18454C15.5767 9.66998 15.3839 10.1355 15.0406 10.4788C14.6974 10.822 14.2318 11.0149 13.7464 11.0149C13.261 11.0149 12.7954 10.822 12.4522 10.4788C12.1089 10.1355 11.9161 9.66998 11.9161 9.18454V8.45241C11.9161 7.96697 12.1089 7.50142 12.4522 7.15816C12.7954 6.81491 13.261 6.62207 13.7464 6.62207C14.2318 6.62207 14.6974 6.81491 15.0406 7.15816C15.3839 7.50142 15.5767 7.96697 15.5767 8.45241Z" fill="#00EFD1"/>
<path d="M13.8153 22.4244H13.8101C13.0008 22.4252 12.1954 22.3118 11.4178 22.0876L11.3281 19.0671H15.4445C15.0624 20.106 14.9677 21.2287 15.1704 22.3169V22.3175C14.7222 22.3887 14.2691 22.4244 13.8153 22.4244Z" fill="#D4E1F4"/>
</svg>
