<svg width="16" height="16" viewBox="0 0 16 16" fill="none" xmlns="http://www.w3.org/2000/svg">
<path fill-rule="evenodd" clip-rule="evenodd" d="M8 16C12.4184 16 16 12.4184 16 8C16 3.5816 12.4184 0 8 0C3.5816 0 0 3.5816 0 8C0 12.4184 3.5816 16 8 16ZM10.4 6.4C10.4 7.03652 10.1471 7.64697 9.69706 8.09706C9.24697 8.54714 8.63652 8.8 8 8.8C7.36348 8.8 6.75303 8.54714 6.30294 8.09706C5.85286 7.64697 5.6 7.03652 5.6 6.4C5.6 5.76348 5.85286 5.15303 6.30294 4.70294C6.75303 4.25286 7.36348 4 8 4C8.63652 4 9.24697 4.25286 9.69706 4.70294C10.1471 5.15303 10.4 5.76348 10.4 6.4ZM3.2 12C3.75841 11.2543 4.48301 10.6491 5.31625 10.2325C6.14949 9.81589 7.06841 9.59932 8 9.6C8.93159 9.59932 9.85051 9.81589 10.6837 10.2325C11.517 10.6491 12.2416 11.2543 12.8 12C12.2416 12.7457 11.517 13.3509 10.6837 13.7675C9.85051 14.1841 8.93159 14.4007 8 14.4C7.06841 14.4007 6.14949 14.1841 5.31625 13.7675C4.48301 13.3509 3.75841 12.7457 3.2 12Z" fill="#212121"/>
</svg>
