<svg width="12" height="13" viewBox="0 0 12 13" fill="none" xmlns="http://www.w3.org/2000/svg">
<path d="M10.8242 8.86511L9.12749 8.65525C8.72 8.60459 8.31919 8.75656 8.03195 9.06775L6.80281 10.3993C4.91234 9.35722 3.36255 7.68551 2.40061 5.63025L3.63644 4.29144C3.92368 3.98025 4.06396 3.54605 4.0172 3.1046L3.82348 1.28092C3.74332 0.549999 3.17551 0 2.49414 0H1.33848C0.583624 0 -0.0443069 0.680262 0.00245392 1.49802C0.3565 7.67827 4.91902 12.6138 10.6172 12.9973C11.372 13.048 11.9999 12.3677 11.9999 11.55V10.298C12.0066 9.56709 11.4989 8.95196 10.8242 8.86511Z" fill="#A4A4A4"/>
</svg>
