<svg width="27" height="27" viewBox="0 0 27 27" fill="none" xmlns="http://www.w3.org/2000/svg">
<path d="M3.51069 13.4906C3.51069 11.919 4.15792 10.4117 5.31001 9.30042C6.4621 8.18912 8.02466 7.5648 9.65396 7.5648H16.9908L15.6568 7.89495L14.551 8.96159C14.3879 9.1189 14.2586 9.30565 14.1703 9.51118C14.0821 9.7167 14.0366 9.93699 14.0366 10.1595C14.0366 10.3819 14.0821 10.6022 14.1703 10.8077C14.2586 11.0133 14.3879 11.2 14.551 11.3573C14.7141 11.5146 14.9077 11.6394 15.1208 11.7245C15.3339 11.8097 15.5622 11.8535 15.7928 11.8535C16.0235 11.8535 16.2518 11.8097 16.4649 11.7245C16.678 11.6394 16.8716 11.5146 17.0347 11.3573L21.4227 7.1246C21.5859 6.96735 21.7154 6.78063 21.8037 6.57509C21.892 6.36955 21.9375 6.14924 21.9375 5.92674C21.9375 5.70424 21.892 5.48393 21.8037 5.27839C21.7154 5.07285 21.5859 4.88612 21.4227 4.72888L17.0347 0.496169C16.7053 0.178477 16.2586 -4.73397e-09 15.7928 0C15.3271 4.73397e-09 14.8804 0.178477 14.551 0.496169C14.2217 0.81386 14.0366 1.24474 14.0366 1.69403C14.0366 2.14331 14.2217 2.57419 14.551 2.89188L15.5778 3.88234L16.9381 4.17863H9.65396C7.7927 4.17858 5.97111 4.69755 4.40854 5.67304C2.84598 6.64852 1.60908 8.03893 0.846784 9.67682C0.0844915 11.3147 -0.170685 13.1302 0.111982 14.9048C0.39465 16.6793 1.20311 18.3372 2.44 19.6788C2.74957 20.0156 3.18515 20.22 3.65092 20.2469C4.1167 20.2739 4.57451 20.1213 4.92364 19.8227C5.27278 19.5241 5.48464 19.104 5.51262 18.6547C5.5406 18.2054 5.3824 17.7638 5.07283 17.427C4.06958 16.3439 3.51367 14.9431 3.51069 13.4906Z" fill="#212121"/>
<path d="M24.5232 7.31559C24.2116 6.98044 23.7742 6.77796 23.3073 6.75269C22.8403 6.72741 22.382 6.8814 22.0332 7.1808C21.6844 7.48019 21.4737 7.90045 21.4474 8.34914C21.4211 8.79782 21.5814 9.23817 21.893 9.57331C22.6847 10.4195 23.2047 11.4676 23.3904 12.5914C23.576 13.7152 23.4194 14.8665 22.9393 15.9067C22.4592 16.9468 21.6762 17.8313 20.6847 18.4534C19.6932 19.0756 18.5356 19.4088 17.3514 19.4129H10.3375L11.4246 19.0591L12.4417 18.0819C12.7707 17.7657 12.9555 17.337 12.9555 16.8899C12.9555 16.4427 12.7707 16.014 12.4417 15.6978C12.1126 15.3817 11.6664 15.204 11.2011 15.204C10.7358 15.204 10.2895 15.3817 9.96049 15.6978L5.57677 19.91C5.41374 20.0665 5.28441 20.2523 5.19616 20.4568C5.10792 20.6614 5.0625 20.8806 5.0625 21.102C5.0625 21.3234 5.10792 21.5427 5.19616 21.7472C5.28441 21.9518 5.41374 22.1376 5.57677 22.2941L9.96049 26.5062C10.2895 26.8224 10.7358 27 11.2011 27C11.6664 27 12.1126 26.8224 12.4417 26.5062C12.7707 26.1901 12.9555 25.7613 12.9555 25.3142C12.9555 24.8671 12.7707 24.4383 12.4417 24.1222L11.372 23.0944L10.3375 22.7827H17.3514C19.2162 22.7835 21.0412 22.2648 22.6055 21.2895C24.1698 20.3141 25.4063 18.9239 26.1652 17.2872C26.9241 15.6505 27.1729 13.8375 26.8815 12.0677C26.5901 10.2979 25.7709 8.64722 24.5232 7.31559Z" fill="#212121"/>
</svg>
