<svg width="11" height="14" viewBox="0 0 11 14" fill="none" xmlns="http://www.w3.org/2000/svg">
<path d="M10.2359 5.00076L10.0048 11.8257C9.98515 12.4102 9.73287 12.9643 9.30152 13.3702C8.87017 13.7762 8.29372 14.0021 7.69451 14H3.30491C2.70609 14.0021 2.12997 13.7765 1.69869 13.371C1.2674 12.9656 1.01486 12.4121 0.994592 11.828L0.76356 5.00076C0.758505 4.85126 0.814509 4.70591 0.919252 4.5967C1.02399 4.4875 1.1689 4.42337 1.32208 4.41844C1.47526 4.41351 1.62418 4.46817 1.73607 4.5704C1.84796 4.67263 1.91366 4.81405 1.91872 4.96356L2.14975 11.7902C2.16125 12.0816 2.28802 12.3574 2.50342 12.5595C2.71882 12.7616 3.00609 12.8745 3.30491 12.8742H7.69451C7.99371 12.8744 8.28132 12.7613 8.49678 12.5587C8.71224 12.3561 8.83875 12.0798 8.84967 11.7879L9.0807 4.96356C9.08576 4.81405 9.15146 4.67263 9.26335 4.5704C9.37524 4.46817 9.52416 4.41351 9.67734 4.41844C9.83053 4.42337 9.97543 4.4875 10.0802 4.5967C10.1849 4.70591 10.2409 4.85126 10.2359 5.00076ZM11 2.72954C11 2.87904 10.9391 3.02243 10.8308 3.12815C10.7225 3.23386 10.5756 3.29326 10.4224 3.29326H0.577579C0.424396 3.29326 0.277486 3.23386 0.169169 3.12815C0.0608518 3.02243 0 2.87904 0 2.72954C0 2.58003 0.0608518 2.43664 0.169169 2.33093C0.277486 2.22521 0.424396 2.16582 0.577579 2.16582H2.36808C2.55108 2.1663 2.72772 2.10031 2.86363 1.98069C2.99953 1.86107 3.08498 1.69638 3.10333 1.51867C3.14596 1.10179 3.34607 0.715327 3.66468 0.434581C3.98329 0.153836 4.39758 -0.00108421 4.82683 5.71211e-06H6.17259C6.60184 -0.00108421 7.01613 0.153836 7.33474 0.434581C7.65335 0.715327 7.85347 1.10179 7.89609 1.51867C7.91445 1.69638 7.99989 1.86107 8.1358 1.98069C8.2717 2.10031 8.44834 2.1663 8.63135 2.16582H10.4218C10.575 2.16582 10.7219 2.22521 10.8303 2.33093C10.9386 2.43664 10.9994 2.58003 10.9994 2.72954H11ZM4.10601 2.16582H6.89457C6.81867 1.99656 6.76903 1.8172 6.74728 1.63367C6.73297 1.49471 6.66633 1.36589 6.56026 1.27216C6.45419 1.17843 6.31625 1.12646 6.17317 1.12632H4.82741C4.68432 1.12646 4.54638 1.17843 4.44032 1.27216C4.33425 1.36589 4.2676 1.49471 4.25329 1.63367C4.23137 1.81723 4.18211 1.99659 4.10601 2.16582ZM4.68763 10.7067V5.90666C4.68763 5.75715 4.62678 5.61377 4.51847 5.50805C4.41015 5.40233 4.26324 5.34294 4.11006 5.34294C3.95687 5.34294 3.80996 5.40233 3.70164 5.50805C3.59333 5.61377 3.53248 5.75715 3.53248 5.90666V10.709C3.53248 10.8585 3.59333 11.0019 3.70164 11.1076C3.80996 11.2133 3.95687 11.2727 4.11006 11.2727C4.26324 11.2727 4.41015 11.2133 4.51847 11.1076C4.62678 11.0019 4.68763 10.8585 4.68763 10.709V10.7067ZM7.4681 10.7067V5.90666C7.4681 5.75715 7.40725 5.61377 7.29893 5.50805C7.19062 5.40233 7.04371 5.34294 6.89052 5.34294C6.73734 5.34294 6.59043 5.40233 6.48211 5.50805C6.37379 5.61377 6.31294 5.75715 6.31294 5.90666V10.709C6.31294 10.8585 6.37379 11.0019 6.48211 11.1076C6.59043 11.2133 6.73734 11.2727 6.89052 11.2727C7.04371 11.2727 7.19062 11.2133 7.29893 11.1076C7.40725 11.0019 7.4681 10.8585 7.4681 10.709V10.7067Z" fill="#FF0000"/>
</svg>
