<svg width="21" height="20" viewBox="0 0 21 20" fill="none" xmlns="http://www.w3.org/2000/svg">
<path d="M10.4991 12.591C11.93 12.591 13.09 11.431 13.09 10.0001C13.09 8.56917 11.93 7.40918 10.4991 7.40918C9.06819 7.40918 7.9082 8.56917 7.9082 10.0001C7.9082 11.431 9.06819 12.591 10.4991 12.591Z" stroke="white" stroke-linecap="round" stroke-linejoin="round"/>
<path fill-rule="evenodd" clip-rule="evenodd" d="M16.8909 12.5909C16.7759 12.8514 16.7417 13.1403 16.7925 13.4205C16.8432 13.7007 16.9768 13.9592 17.1759 14.1627L17.2277 14.2145C17.5518 14.5387 17.7339 14.9782 17.7339 15.4366C17.7339 15.8949 17.5518 16.3345 17.2277 16.6586C16.9036 16.9827 16.464 17.1648 16.0057 17.1648C15.5473 17.1648 15.1077 16.9827 14.7836 16.6586L14.7318 16.6068C14.5283 16.4077 14.2698 16.2742 13.9896 16.2234C13.7094 16.1726 13.4205 16.2069 13.16 16.3218C12.9046 16.4313 12.6867 16.6131 12.5333 16.8448C12.3798 17.0765 12.2975 17.348 12.2964 17.6259V17.7727C12.2964 18.2308 12.1144 18.6702 11.7905 18.9941C11.4665 19.318 11.0272 19.5 10.5691 19.5C10.111 19.5 9.67165 19.318 9.34773 18.9941C9.0238 18.6702 8.84182 18.2308 8.84182 17.7727V17.695C8.83513 17.4091 8.7426 17.1319 8.57626 16.8993C8.40992 16.6668 8.17745 16.4896 7.90909 16.3909C7.6486 16.2759 7.35965 16.2417 7.07949 16.2925C6.79933 16.3432 6.54081 16.4768 6.33727 16.6759L6.28545 16.7277C5.96135 17.0518 5.52177 17.2339 5.06341 17.2339C4.60505 17.2339 4.16547 17.0518 3.84136 16.7277C3.51726 16.4036 3.33518 15.964 3.33518 15.5057C3.33518 15.0473 3.51726 14.6077 3.84136 14.2836L3.89318 14.2318C4.09228 14.0283 4.22584 13.7698 4.27664 13.4896C4.32744 13.2094 4.29315 12.9205 4.17818 12.66C4.0687 12.4046 3.88693 12.1867 3.65522 12.0333C3.42352 11.8798 3.152 11.7975 2.87409 11.7964H2.72727C2.26917 11.7964 1.82983 11.6144 1.50591 11.2905C1.18198 10.9665 1 10.5272 1 10.0691C1 9.61099 1.18198 9.17165 1.50591 8.84773C1.82983 8.5238 2.26917 8.34182 2.72727 8.34182H2.805C3.09086 8.33513 3.36809 8.2426 3.60067 8.07626C3.83324 7.90992 4.01039 7.67745 4.10909 7.40909C4.22405 7.1486 4.25835 6.85965 4.20755 6.57949C4.15675 6.29933 4.02319 6.04081 3.82409 5.83727L3.77227 5.78545C3.44817 5.46135 3.26608 5.02177 3.26608 4.56341C3.26608 4.10505 3.44817 3.66547 3.77227 3.34136C4.09638 3.01726 4.53596 2.83518 4.99432 2.83518C5.45267 2.83518 5.89226 3.01726 6.21636 3.34136L6.26818 3.39318C6.47172 3.59228 6.73024 3.72584 7.0104 3.77664C7.29056 3.82744 7.57951 3.79315 7.84 3.67818H7.90909C8.16453 3.5687 8.38238 3.38693 8.53583 3.15522C8.68927 2.92352 8.77162 2.652 8.77273 2.37409V2.22727C8.77273 1.76917 8.95471 1.32983 9.27863 1.00591C9.60256 0.68198 10.0419 0.5 10.5 0.5C10.9581 0.5 11.3974 0.68198 11.7214 1.00591C12.0453 1.32983 12.2273 1.76917 12.2273 2.22727V2.305C12.2284 2.58291 12.3107 2.85442 12.4642 3.08613C12.6176 3.31783 12.8355 3.49961 13.0909 3.60909C13.3514 3.72405 13.6403 3.75835 13.9205 3.70755C14.2007 3.65675 14.4592 3.52319 14.6627 3.32409L14.7145 3.27227C15.0387 2.94817 15.4782 2.76608 15.9366 2.76608C16.3949 2.76608 16.8345 2.94817 17.1586 3.27227C17.4827 3.59638 17.6648 4.03596 17.6648 4.49432C17.6648 4.95267 17.4827 5.39226 17.1586 5.71636L17.1068 5.76818C16.9077 5.97172 16.7742 6.23024 16.7234 6.5104C16.6726 6.79056 16.7069 7.07951 16.8218 7.34V7.40909C17.0464 7.93073 17.5576 8.27014 18.1259 8.27273H18.2727C18.7308 8.27273 19.1702 8.45471 19.4941 8.77863C19.818 9.10256 20 9.5419 20 10C20 10.4581 19.818 10.8974 19.4941 11.2214C19.1702 11.5453 18.7308 11.7273 18.2727 11.7273H18.195C17.9171 11.7284 17.6456 11.8107 17.4139 11.9642C17.1822 12.1176 17.0004 12.3355 16.8909 12.5909Z" stroke="white" stroke-linecap="round" stroke-linejoin="round"/>
</svg>
