<svg width="18" height="22" viewBox="0 0 18 22" fill="none" xmlns="http://www.w3.org/2000/svg">
<path d="M17.9245 5.49799C17.9247 5.34786 17.8947 5.19927 17.8361 5.06137C17.7776 4.92347 17.6918 4.79918 17.5841 4.69616C17.4764 4.59315 17.349 4.51358 17.2098 4.46237C17.0705 4.41115 16.9225 4.38938 16.7746 4.39839H16.5685C15.2249 4.41313 13.9021 4.0604 12.7396 3.37731C11.577 2.69422 10.6176 1.70604 9.9624 0.516811V0.450835C9.92133 0.390913 9.87406 0.335618 9.82138 0.285895C9.7727 0.23211 9.71811 0.184148 9.65867 0.142948L9.58274 0.0769717H9.47426L9.23562 0H9.02952H8.83426C8.75929 0.0117689 8.68629 0.0339703 8.61731 0.0659758H8.50884H8.44375C8.38464 0.107604 8.33009 0.155527 8.28104 0.208924C8.2251 0.259591 8.1775 0.318983 8.14002 0.384859C8.11569 0.40401 8.09383 0.426174 8.07494 0.450835C7.4184 1.6672 6.44993 2.68122 5.27185 3.38574C4.09377 4.09026 2.74984 4.45913 1.38204 4.45337H1.24102C1.09166 4.43338 0.939834 4.44516 0.795211 4.48794C0.650589 4.53072 0.516343 4.60356 0.401026 4.70184C0.28571 4.80011 0.191852 4.92166 0.125433 5.05873C0.0590145 5.19581 0.0214912 5.3454 0.0152539 5.49799C0.0152539 6.59758 0.0152539 7.6422 0.0152539 8.79678V9.25861C-0.120792 12.049 0.656196 14.8068 2.22548 17.1034C3.79476 19.4001 6.06846 21.107 8.69324 21.959C8.78462 21.9866 8.88009 21.9978 8.97528 21.9919C9.06536 22.0027 9.15638 22.0027 9.24647 21.9919C11.8717 21.1399 14.1487 19.4382 15.728 17.148C17.3074 14.8578 18.1018 12.1056 17.9895 9.31359C17.9895 7.95009 17.9895 6.69655 17.9245 5.49799ZM13.5855 9.62148L8.57392 14.7016C8.45982 14.8199 8.318 14.9069 8.16172 14.9545C7.96677 15.1288 7.71656 15.2264 7.45663 15.2294C7.17206 15.2282 6.89935 15.1137 6.69731 14.9105L4.52781 12.7113C4.41426 12.6128 4.32203 12.4915 4.25692 12.355C4.19181 12.2186 4.15522 12.07 4.14945 11.9186C4.14368 11.7672 4.16885 11.6161 4.22339 11.475C4.27792 11.3339 4.36064 11.2058 4.46636 11.0986C4.57207 10.9915 4.6985 10.9076 4.8377 10.8523C4.9769 10.797 5.12587 10.7715 5.27526 10.7774C5.42465 10.7832 5.57123 10.8203 5.70581 10.8863C5.84039 10.9523 5.96006 11.0458 6.0573 11.1609L7.48917 12.6124L12.0126 8.02706C12.2201 7.84692 12.487 7.75278 12.76 7.76347C13.033 7.77416 13.292 7.88889 13.4852 8.08472C13.6784 8.28055 13.7916 8.54307 13.8021 8.81981C13.8126 9.09655 13.7198 9.36714 13.5421 9.57749L13.5855 9.62148Z" fill="#212121"/>
</svg>
