<svg width="20" height="20" viewBox="0 0 20 20" fill="none" xmlns="http://www.w3.org/2000/svg">
<path fill-rule="evenodd" clip-rule="evenodd" d="M20 12.8571C20 12.2886 19.7743 11.7436 19.3721 11.3421C19.1733 11.143 18.9371 10.9851 18.6772 10.8773C18.4172 10.7696 18.1385 10.7142 17.8571 10.7143H12.8571C12.2886 10.7143 11.7436 10.94 11.3421 11.3421C11.143 11.541 10.9851 11.7772 10.8773 12.0371C10.7696 12.2971 10.7142 12.5757 10.7143 12.8571V17.8571C10.7143 18.4257 10.94 18.9707 11.3421 19.3721C11.541 19.5713 11.7772 19.7292 12.0371 19.837C12.2971 19.9447 12.5757 20.0001 12.8571 20H17.8571C18.4257 20 18.9707 19.7743 19.3721 19.3721C19.5713 19.1733 19.7292 18.9371 19.837 18.6772C19.9447 18.4172 20.0001 18.1385 20 17.8571V12.8571ZM9.28571 12.8571C9.28571 12.2886 9.06 11.7436 8.65786 11.3421C8.45901 11.143 8.22285 10.9851 7.96289 10.8773C7.70292 10.7696 7.42426 10.7142 7.14286 10.7143H2.14286C1.57429 10.7143 1.02929 10.94 0.627857 11.3421C0.428734 11.541 0.270783 11.7772 0.163047 12.0371C0.0553108 12.2971 -9.54044e-05 12.5757 1.23316e-07 12.8571V17.8571C1.23316e-07 18.4257 0.225714 18.9707 0.627857 19.3721C0.8267 19.5713 1.06286 19.7292 1.32283 19.837C1.58279 19.9447 1.86145 20.0001 2.14286 20H7.14286C7.71143 20 8.25643 19.7743 8.65786 19.3721C8.85698 19.1733 9.01493 18.9371 9.12267 18.6772C9.2304 18.4172 9.28581 18.1385 9.28571 17.8571V12.8571ZM18.5714 12.8571V17.8571C18.5717 17.951 18.5534 18.044 18.5176 18.1308C18.4818 18.2176 18.4292 18.2965 18.3629 18.3629C18.2965 18.4292 18.2176 18.4818 18.1308 18.5176C18.044 18.5534 17.951 18.5717 17.8571 18.5714H12.8571C12.7633 18.5717 12.6703 18.5534 12.5835 18.5176C12.4967 18.4818 12.4178 18.4292 12.3514 18.3629C12.2851 18.2965 12.2324 18.2176 12.1967 18.1308C12.1609 18.044 12.1426 17.951 12.1429 17.8571V12.8571C12.1426 12.7633 12.1609 12.6703 12.1967 12.5835C12.2324 12.4967 12.2851 12.4178 12.3514 12.3514C12.4178 12.2851 12.4967 12.2324 12.5835 12.1967C12.6703 12.1609 12.7633 12.1426 12.8571 12.1429H17.8571C17.951 12.1426 18.044 12.1609 18.1308 12.1967C18.2176 12.2324 18.2965 12.2851 18.3629 12.3514C18.4292 12.4178 18.4818 12.4967 18.5176 12.5835C18.5534 12.6703 18.5717 12.7633 18.5714 12.8571ZM7.85714 12.8571V17.8571C7.85743 17.951 7.83914 18.044 7.80335 18.1308C7.76755 18.2176 7.71495 18.2965 7.64856 18.3629C7.58218 18.4292 7.50333 18.4818 7.41654 18.5176C7.32975 18.5534 7.23674 18.5717 7.14286 18.5714H2.14286C2.04898 18.5717 1.95597 18.5534 1.86918 18.5176C1.78239 18.4818 1.70353 18.4292 1.63715 18.3629C1.57077 18.2965 1.51816 18.2176 1.48237 18.1308C1.44657 18.044 1.42829 17.951 1.42857 17.8571V12.8571C1.42829 12.7633 1.44657 12.6703 1.48237 12.5835C1.51816 12.4967 1.57077 12.4178 1.63715 12.3514C1.70353 12.2851 1.78239 12.2324 1.86918 12.1967C1.95597 12.1609 2.04898 12.1426 2.14286 12.1429H7.14286C7.23674 12.1426 7.32975 12.1609 7.41654 12.1967C7.50333 12.2324 7.58218 12.2851 7.64856 12.3514C7.71495 12.4178 7.76755 12.4967 7.80335 12.5835C7.83914 12.6703 7.85743 12.7633 7.85714 12.8571ZM9.28571 2.14286C9.28571 1.57429 9.06 1.02929 8.65786 0.627857C8.45901 0.428734 8.22285 0.270783 7.96289 0.163047C7.70292 0.0553108 7.42426 -9.54044e-05 7.14286 1.23316e-07H2.14286C1.57429 1.23316e-07 1.02929 0.225714 0.627857 0.627857C0.428734 0.8267 0.270783 1.06286 0.163047 1.32283C0.0553108 1.58279 -9.54044e-05 1.86145 1.23316e-07 2.14286V7.14286C1.23316e-07 7.71143 0.225714 8.25643 0.627857 8.65786C0.8267 8.85698 1.06286 9.01493 1.32283 9.12267C1.58279 9.2304 1.86145 9.28581 2.14286 9.28571H7.14286C7.71143 9.28571 8.25643 9.06 8.65786 8.65786C8.85698 8.45901 9.01493 8.22285 9.12267 7.96289C9.2304 7.70292 9.28581 7.42426 9.28571 7.14286V2.14286ZM20 2.14286C20 1.57429 19.7743 1.02929 19.3721 0.627857C19.1733 0.428734 18.9371 0.270783 18.6772 0.163047C18.4172 0.0553108 18.1385 -9.54044e-05 17.8571 1.23316e-07H12.8571C12.2886 1.23316e-07 11.7436 0.225714 11.3421 0.627857C11.143 0.8267 10.9851 1.06286 10.8773 1.32283C10.7696 1.58279 10.7142 1.86145 10.7143 2.14286V7.14286C10.7143 7.71143 10.94 8.25643 11.3421 8.65786C11.541 8.85698 11.7772 9.01493 12.0371 9.12267C12.2971 9.2304 12.5757 9.28581 12.8571 9.28571H17.8571C18.4257 9.28571 18.9707 9.06 19.3721 8.65786C19.5713 8.45901 19.7292 8.22285 19.837 7.96289C19.9447 7.70292 20.0001 7.42426 20 7.14286V2.14286ZM7.85714 2.14286V7.14286C7.85743 7.23674 7.83914 7.32975 7.80335 7.41654C7.76755 7.50333 7.71495 7.58218 7.64856 7.64856C7.58218 7.71495 7.50333 7.76755 7.41654 7.80335C7.32975 7.83914 7.23674 7.85743 7.14286 7.85714H2.14286C2.04898 7.85743 1.95597 7.83914 1.86918 7.80335C1.78239 7.76755 1.70353 7.71495 1.63715 7.64856C1.57077 7.58218 1.51816 7.50333 1.48237 7.41654C1.44657 7.32975 1.42829 7.23674 1.42857 7.14286V2.14286C1.42829 2.04898 1.44657 1.95597 1.48237 1.86918C1.51816 1.78239 1.57077 1.70353 1.63715 1.63715C1.70353 1.57077 1.78239 1.51816 1.86918 1.48237C1.95597 1.44657 2.04898 1.42829 2.14286 1.42857H7.14286C7.23674 1.42829 7.32975 1.44657 7.41654 1.48237C7.50333 1.51816 7.58218 1.57077 7.64856 1.63715C7.71495 1.70353 7.76755 1.78239 7.80335 1.86918C7.83914 1.95597 7.85743 2.04898 7.85714 2.14286ZM18.5714 2.14286V7.14286C18.5717 7.23674 18.5534 7.32975 18.5176 7.41654C18.4818 7.50333 18.4292 7.58218 18.3629 7.64856C18.2965 7.71495 18.2176 7.76755 18.1308 7.80335C18.044 7.83914 17.951 7.85743 17.8571 7.85714H12.8571C12.7633 7.85743 12.6703 7.83914 12.5835 7.80335C12.4967 7.76755 12.4178 7.71495 12.3514 7.64856C12.2851 7.58218 12.2324 7.50333 12.1967 7.41654C12.1609 7.32975 12.1426 7.23674 12.1429 7.14286V2.14286C12.1426 2.04898 12.1609 1.95597 12.1967 1.86918C12.2324 1.78239 12.2851 1.70353 12.3514 1.63715C12.4178 1.57077 12.4967 1.51816 12.5835 1.48237C12.6703 1.44657 12.7633 1.42829 12.8571 1.42857H17.8571C17.951 1.42829 18.044 1.44657 18.1308 1.48237C18.2176 1.51816 18.2965 1.57077 18.3629 1.63715C18.4292 1.70353 18.4818 1.78239 18.5176 1.86918C18.5534 1.95597 18.5717 2.04898 18.5714 2.14286Z" fill="#A4A4A4"/>
</svg>
