<svg width="11" height="12" viewBox="0 0 11 12" fill="none" xmlns="http://www.w3.org/2000/svg">
<path d="M5.89068 6.00149L9.82492 2.06709C9.88464 2.00942 9.93227 1.94043 9.96503 1.86415C9.9978 1.78788 10.015 1.70584 10.0158 1.62282C10.0165 1.53981 10.0007 1.45748 9.96923 1.38065C9.9378 1.30381 9.89137 1.23401 9.83267 1.1753C9.77397 1.1166 9.70417 1.07018 9.62733 1.03874C9.5505 1.00731 9.46817 0.99149 9.38516 0.992211C9.30214 0.992932 9.2201 1.01018 9.14382 1.04295C9.06755 1.07571 8.99856 1.12334 8.94089 1.18305L5.00649 5.1173L1.07225 1.18305C0.954569 1.06796 0.796252 1.00392 0.631653 1.00483C0.467053 1.00573 0.309452 1.07152 0.19305 1.1879C0.0766487 1.30428 0.0108395 1.46187 0.00990393 1.62647C0.00896835 1.79107 0.0729821 1.94939 0.188053 2.06709L4.12245 6.00149L0.188053 9.93589C0.128936 9.99371 0.0818757 10.0627 0.0495977 10.1388C0.0173196 10.2149 0.000464872 10.2967 9.48146e-06 10.3794C-0.000445909 10.4621 0.0155071 10.5441 0.0469447 10.6205C0.0783823 10.697 0.12468 10.7665 0.183157 10.825C0.241633 10.8834 0.311128 10.9297 0.387616 10.9612C0.464104 10.9926 0.546066 11.0085 0.628756 11.008C0.711446 11.0076 0.793222 10.9907 0.869347 10.9584C0.945473 10.9261 1.01444 10.8791 1.07225 10.8199L5.00649 6.88568L8.94089 10.8199C9.06296 10.942 9.22301 11.0031 9.38291 11.0031C9.5428 11.0031 9.70301 10.942 9.82492 10.8199C9.94213 10.7027 10.008 10.5437 10.008 10.3779C10.008 10.2121 9.94213 10.0531 9.82492 9.93589L5.89068 6.00149Z" fill="black"/>
</svg>
