<svg width="16" height="17" viewBox="0 0 16 17" fill="none" xmlns="http://www.w3.org/2000/svg">
<path d="M14.3536 1.65542C13.4679 0.769805 12.0321 0.769808 11.1465 1.65542L6.89646 5.90542C6.84157 5.96031 6.80022 6.02722 6.77567 6.10086L5.52567 9.85086C5.46578 10.0305 5.51254 10.2286 5.64646 10.3625C5.78038 10.4964 5.97846 10.5432 6.15813 10.4833L9.90813 9.23332C9.98177 9.20877 10.0487 9.16741 10.1036 9.11253L14.3536 4.86253C15.2392 3.97691 15.2392 2.54104 14.3536 1.65542Z" fill="white"/>
<path d="M10.9868 9.64347C10.9956 9.76418 11 9.88609 11 10.009C11 12.7704 8.7614 15.009 6 15.009C3.23858 15.009 1 12.7704 1 10.009C1 7.24761 3.23858 5.00903 6 5.00903C6.12291 5.00903 6.24479 5.01347 6.36548 5.02218L7.24855 4.13912C6.8458 4.05387 6.42814 4.00903 6 4.00903C2.68629 4.00903 0 6.69532 0 10.009C0 13.3227 2.68629 16.009 6 16.009C9.3137 16.009 12 13.3227 12 10.009C12 9.58087 11.9552 9.16318 11.8699 8.76041L10.9868 9.64347Z" fill="white"/>
</svg>
