<svg width="18" height="18" viewBox="0 0 18 18" fill="none" xmlns="http://www.w3.org/2000/svg">
<path d="M14.4 0L6.9666 7.4328C6.15977 7.18821 5.30688 7.13594 4.47622 7.28016C3.64556 7.42439 2.86021 7.76111 2.18306 8.26337C1.5059 8.76562 0.955755 9.41945 0.576668 10.1725C0.197582 10.9256 8.77475e-05 11.7569 0 12.6C0 14.0322 0.568927 15.4057 1.58162 16.4184C2.59432 17.4311 3.96783 18 5.4 18C6.24311 17.9998 7.07446 17.8023 7.8275 17.4231C8.58054 17.044 9.23433 16.4937 9.73653 15.8165C10.2387 15.1393 10.5754 14.3539 10.7195 13.5232C10.8637 12.6925 10.8113 11.8396 10.5666 11.0328L12 9.6V8.4H13.2L18 3.6V0H14.4ZM16.8 3.1026L12.7032 7.2H10.8V9.1026L9.7182 10.1838L9.2094 10.6926L9.4182 11.3808C9.5388 11.778 9.6 12.1878 9.6 12.6C9.6 14.916 7.7154 16.8 5.4 16.8C3.0846 16.8 1.2 14.916 1.2 12.6C1.2 10.284 3.0846 8.4 5.4 8.4C5.8116 8.4 6.222 8.4612 6.6186 8.5812L7.3062 8.79L7.815 8.2812L14.8968 1.2H16.8V3.1026Z" fill="#212121"/>
<path d="M4.80156 14.4C5.4643 14.4 6.00156 13.8627 6.00156 13.2C6.00156 12.5373 5.4643 12 4.80156 12C4.13882 12 3.60156 12.5373 3.60156 13.2C3.60156 13.8627 4.13882 14.4 4.80156 14.4Z" fill="#212121"/>
<path d="M12.3887 5.1882L15.9887 1.5882L16.4129 2.0124L12.8129 5.6124L12.3887 5.1882Z" fill="#212121"/>
</svg>
