<svg width="18" height="14" viewBox="0 0 18 14" fill="none" xmlns="http://www.w3.org/2000/svg">
<path d="M18 1.21333C18 1.82933 17.4659 2.33333 16.8132 2.33333H5.91429C5.26154 2.33333 4.72747 1.82933 4.72747 1.21333C4.72747 0.597333 5.26154 0.0933333 5.91429 0.0933333H16.8132C17.4659 0.0933333 18 0.597333 18 1.21333ZM5.91429 8.12H12.1055C12.7582 8.12 13.2923 7.616 13.2923 7C13.2923 6.384 12.7582 5.88 12.1055 5.88H5.91429C5.26154 5.88 4.72747 6.384 4.72747 7C4.72747 7.616 5.26154 8.12 5.91429 8.12ZM14.6571 11.6667H5.91429C5.26154 11.6667 4.72747 12.1707 4.72747 12.7867C4.72747 13.4027 5.26154 13.9067 5.91429 13.9067H14.6571C15.3099 13.9067 15.844 13.4027 15.844 12.7867C15.844 12.1707 15.3297 11.6667 14.6571 11.6667ZM1.30549 0C0.969231 0 0.632967 0.130667 0.395604 0.354667C0.158242 0.578667 0 0.896 0 1.21333C0 1.53067 0.138462 1.848 0.375824 2.072C0.613187 2.296 0.949451 2.42667 1.28571 2.42667C1.62198 2.42667 1.95824 2.296 2.1956 2.072C2.43297 1.848 2.57143 1.53067 2.57143 1.21333C2.57143 0.896 2.43297 0.578667 2.1956 0.354667C1.97802 0.130667 1.64176 0 1.30549 0ZM1.30549 5.78667C0.969231 5.78667 0.632967 5.91733 0.395604 6.14133C0.158242 6.36533 0 6.68267 0 7C0 7.31733 0.138462 7.63467 0.375824 7.85867C0.613187 8.08267 0.949451 8.21333 1.28571 8.21333C1.62198 8.21333 1.95824 8.08267 2.1956 7.85867C2.43297 7.63467 2.57143 7.31733 2.57143 7C2.57143 6.68267 2.43297 6.36533 2.1956 6.14133C1.97802 5.91733 1.64176 5.78667 1.30549 5.78667ZM1.30549 11.5733C0.969231 11.5733 0.632967 11.704 0.395604 11.928C0.158242 12.152 0 12.4693 0 12.7867C0 13.104 0.138462 13.4213 0.375824 13.6453C0.613187 13.8693 0.949451 14 1.28571 14C1.62198 14 1.95824 13.8693 2.1956 13.6453C2.43297 13.4213 2.57143 13.104 2.57143 12.7867C2.57143 12.4693 2.43297 12.152 2.1956 11.928C1.97802 11.704 1.64176 11.5733 1.30549 11.5733Z" fill="#A4A4A4"/>
</svg>
