<svg width="18" height="22" viewBox="0 0 18 22" fill="none" xmlns="http://www.w3.org/2000/svg">
<path d="M0 11C0 11.3037 0.251862 11.55 0.5625 11.55H10.4547L7.47729 14.4611C7.37183 14.5643 7.31257 14.7041 7.31257 14.8499C7.3125 15.1537 7.56436 15.3999 7.875 15.4C8.02421 15.4001 8.1673 15.3422 8.27264 15.2389L12.2101 11.3889C12.2101 11.3889 12.2102 11.3888 12.2101 11.3889C12.4297 11.1741 12.4298 10.8258 12.2101 10.6112L8.27264 6.7612C8.0547 6.55535 7.70911 6.55535 7.4911 6.7612C7.26766 6.97222 7.26148 7.3204 7.47729 7.53887L10.4547 10.45H0.5625C0.251862 10.45 0 10.6963 0 11ZM15.1875 0H2.8125C1.25979 0.00140987 0.00144191 1.23179 0 2.75V7.15C0 7.45374 0.251862 7.7 0.5625 7.7C0.873138 7.7 1.125 7.45374 1.125 7.15V2.75C1.12603 1.83913 1.88093 1.10101 2.8125 1.1H15.1875C16.1191 1.10101 16.874 1.83913 16.875 2.75V19.25C16.874 20.1609 16.1191 20.899 15.1875 20.9H2.8125C1.88093 20.899 1.12603 20.1609 1.125 19.25V14.85C1.125 14.5463 0.873138 14.3 0.5625 14.3C0.251862 14.3 0 14.5463 0 14.85V19.25C0.00144191 20.7682 1.25979 21.9986 2.8125 22H15.1875C16.7402 21.9986 17.9986 20.7682 18 19.25V2.75C17.9986 1.23179 16.7402 0.00140987 15.1875 0Z" fill="black"/>
</svg>
