<svg width="25" height="30" viewBox="0 0 25 30" fill="none" xmlns="http://www.w3.org/2000/svg">
<path d="M14.2303 27.6335V29.4823H14.1528H9.91309V21.6689L12.8308 24.1426L14.2303 22.6037V27.1326V27.6335Z" fill="#F5AA42"/>
<path d="M21.4396 11.8211L23.4485 15.3276L20.0092 17.4449L19.5702 21.4626L15.5422 21.1527L14.2305 22.6039L12.831 24.1428L9.91329 21.6692L9.7532 21.5297L5.80264 22.3508L4.84728 18.4261L1.16525 16.7684L2.70416 13.0347L0.695312 9.52827L4.13462 7.41098L4.57358 3.39845L8.6016 3.70313L11.3128 0.718262L14.3906 3.33131L18.3412 2.50505L19.2965 6.42979L22.9785 8.08748L21.4396 11.8211Z" fill="#F7D44F"/>
<path d="M22.0152 11.7851L23.6435 7.82056L19.7409 6.06166L18.7262 1.89885L14.5324 2.77314L11.265 0L8.38759 3.16923L4.11891 2.84647L3.65053 7.10275L0 9.3507L2.12814 13.0689L0.499888 17.036L4.40242 18.7943L5.41718 22.9561L9.39769 22.1299V29.4836C9.39769 29.6205 9.4521 29.7519 9.54894 29.8487C9.64579 29.9456 9.77714 30 9.9141 30H14.2293C14.3662 30 14.4976 29.9456 14.5944 29.8487C14.6913 29.7519 14.7457 29.6205 14.7457 29.4836V22.8017L15.7558 21.6873L20.027 22.0152L20.4954 17.7538L24.1434 15.5063L22.0152 11.7851ZM13.214 24.4888L13.7128 23.9399V28.9651H10.4305V22.7847L12.4962 24.5405L12.8757 24.8627L13.2104 24.494L13.214 24.4888ZM19.524 17.1398L19.1109 20.9096L15.3313 20.6199L12.7859 23.4281L9.89396 20.9746L6.18457 21.7431L5.28704 18.06L1.83533 16.5041L3.27613 12.9961L1.39328 9.70547L4.61983 7.71728L5.03297 3.95211L8.81259 4.23717L11.358 1.4346L14.2499 3.88808L17.9588 3.11449L18.8563 6.796L22.308 8.35247L20.8672 11.8599L22.7501 15.1511L19.524 17.1398Z" fill="#700900"/>
<path d="M8.00387 10.0856H7.99922C7.86244 10.0868 7.73173 10.1423 7.63578 10.2397C7.53984 10.3372 7.48649 10.4688 7.48746 10.6056L7.5076 13.136L5.94028 10.3877C5.88379 10.2885 5.79601 10.2108 5.69066 10.1667C5.58532 10.1227 5.46835 10.1148 5.35805 10.1443C5.24775 10.1738 5.15035 10.2391 5.08106 10.3298C5.01177 10.4206 4.97451 10.5317 4.9751 10.6459L5.01125 15.0938C5.01234 15.23 5.06723 15.3603 5.16396 15.4562C5.26069 15.5522 5.39142 15.606 5.52767 15.606H5.5318C5.59962 15.6055 5.66666 15.5916 5.72911 15.5652C5.79156 15.5387 5.84818 15.5002 5.89575 15.4519C5.94332 15.4035 5.98091 15.3463 6.00636 15.2834C6.03181 15.2206 6.04462 15.1533 6.04408 15.0855L6.02446 12.6176L7.59177 15.3659C7.63718 15.4446 7.70253 15.5098 7.78123 15.5552C7.85993 15.6005 7.9492 15.6243 8.04002 15.6241C8.08552 15.6241 8.13082 15.6182 8.1748 15.6066C8.28509 15.5767 8.38238 15.5112 8.45144 15.4202C8.5205 15.3292 8.55742 15.2178 8.55643 15.1036L8.52028 10.5942C8.51825 10.4586 8.46294 10.3293 8.36632 10.2341C8.26969 10.1389 8.1395 10.0856 8.00387 10.0856ZM12.4791 14.5004H12.4745L10.9526 14.5133L10.9433 13.3772L12.3216 13.3658C12.3894 13.3653 12.4565 13.3513 12.5189 13.3248C12.5813 13.2984 12.6379 13.2598 12.6855 13.2115C12.733 13.1631 12.7706 13.1059 12.796 13.043C12.8214 12.9801 12.8342 12.9128 12.8336 12.845C12.833 12.7772 12.8191 12.7102 12.7926 12.6477C12.7661 12.5853 12.7276 12.5287 12.6793 12.4812C12.6309 12.4336 12.5737 12.3961 12.5108 12.3706C12.4479 12.3452 12.3806 12.3324 12.3128 12.333L10.935 12.3444L10.9247 11.1148L12.303 11.1034C12.3708 11.1029 12.4379 11.089 12.5003 11.0625C12.5628 11.0361 12.6194 10.9976 12.667 10.9493C12.7145 10.9009 12.7521 10.8437 12.7776 10.7808C12.803 10.718 12.8158 10.6507 12.8153 10.5829C12.8103 10.4472 12.7536 10.3185 12.6568 10.2233C12.5601 10.128 12.4305 10.0734 12.2947 10.0706L10.4005 10.0856C10.3327 10.0861 10.2656 10.0999 10.2031 10.1263C10.1406 10.1527 10.0839 10.1912 10.0363 10.2396C9.98863 10.2879 9.951 10.3452 9.92552 10.4081C9.90004 10.471 9.8872 10.5383 9.88774 10.6061L9.92389 15.0359C9.92485 15.1723 9.97968 15.3027 10.0764 15.3987C10.1732 15.4948 10.304 15.5487 10.4403 15.5487H10.4444L12.4832 15.5317C12.6202 15.5311 12.7513 15.4762 12.8478 15.379C12.9442 15.2817 12.9981 15.1502 12.9976 15.0132C12.997 14.8762 12.9421 14.7451 12.8449 14.6486C12.7476 14.5522 12.6161 14.4983 12.4791 14.4988V14.5004ZM19.0164 10.209C18.8852 10.1699 18.7438 10.1844 18.6233 10.2495C18.5029 10.3146 18.4132 10.4248 18.374 10.556L17.5993 13.1422L16.9673 10.57C16.9398 10.4577 16.8754 10.358 16.7845 10.2866C16.6936 10.2153 16.5814 10.1765 16.4658 10.1765H16.4612C16.3449 10.1777 16.2324 10.2181 16.142 10.2912C16.0515 10.3643 15.9884 10.4658 15.9628 10.5793L15.4387 12.8923L14.7673 10.3835C14.7321 10.2512 14.6457 10.1382 14.5271 10.0696C14.4086 10.0009 14.2676 9.98214 14.1352 10.0174C14.0029 10.0527 13.8899 10.1391 13.8213 10.2576C13.7526 10.3762 13.7338 10.5171 13.7691 10.6495L14.9785 15.1831C15.0093 15.2941 15.0758 15.3918 15.1678 15.4611C15.2598 15.5304 15.3721 15.5674 15.4872 15.5663C15.6026 15.564 15.714 15.5232 15.8035 15.4503C15.8929 15.3774 15.9554 15.2766 15.9809 15.164L16.4844 12.9403L17.0478 15.2306C17.0748 15.3407 17.1372 15.4389 17.2255 15.51C17.3138 15.5812 17.423 15.6212 17.5363 15.6241H17.5493C17.6604 15.6241 17.7686 15.5882 17.8577 15.5218C17.9469 15.4553 18.0122 15.3619 18.044 15.2554L19.3603 10.8514C19.3996 10.7206 19.3854 10.5796 19.321 10.4592C19.2565 10.3388 19.147 10.2488 19.0164 10.209Z" fill="#700900"/>
</svg>
