<svg width="12" height="13" viewBox="0 0 12 13" fill="none" xmlns="http://www.w3.org/2000/svg">
<path d="M11.8866 3.25793C11.773 3.06988 11.5902 2.93538 11.3709 2.87905C11.1529 2.8235 10.9228 2.85168 10.7267 2.96078L6.83895 5.10866V0.8125C6.83895 0.364579 6.45799 0 5.99 0C5.52199 0 5.14106 0.364579 5.14106 0.8125V5.09796L1.27355 2.96077C1.07747 2.85207 0.849078 2.8235 0.629382 2.87905C0.410085 2.93538 0.226866 3.06989 0.113715 3.25793C-0.120506 3.64632 0.0187775 4.14382 0.424181 4.36757L4.30206 6.5107L0.433728 8.64827C0.237242 8.75659 0.0967051 8.93194 0.0382715 9.14141C-0.0205916 9.35089 0.00965486 9.56988 0.122833 9.75793C0.347905 10.1312 0.892588 10.2721 1.28267 10.0551L5.14106 7.92346V12.1875C5.14106 12.6354 5.52199 13 5.99 13C6.45798 13 6.83894 12.6354 6.83894 12.1875V7.91235L10.7172 10.0551C11.1073 10.2721 11.6524 10.1312 11.8766 9.75793C11.9902 9.56988 12.0205 9.35089 11.9616 9.14142C11.9032 8.93195 11.7627 8.75659 11.5662 8.64828L7.69784 6.5107L11.5757 4.36758C11.9811 4.14382 12.1204 3.64632 11.8866 3.25793Z" fill="#A4A4A4"/>
</svg>
