<svg width="16" height="16" viewBox="0 0 16 16" fill="none" xmlns="http://www.w3.org/2000/svg">
<path d="M12.1377 2.75872H3.8618V2.207C3.8618 2.06067 3.91993 1.92034 4.0234 1.81687C4.12686 1.7134 4.2672 1.65527 4.41352 1.65527H11.5859C11.7323 1.65527 11.8726 1.7134 11.9761 1.81687C12.0795 1.92034 12.1377 2.06067 12.1377 2.207V2.75872ZM12.1377 7.17252H3.8618C3.78864 7.17252 3.71847 7.20158 3.66674 7.25331C3.615 7.30505 3.58594 7.37521 3.58594 7.44838V13.7932C3.58594 13.9395 3.64407 14.0799 3.74753 14.1833C3.851 14.2868 3.99134 14.3449 4.13766 14.3449H11.8618C12.0081 14.3449 12.1485 14.2868 12.2519 14.1833C12.3554 14.0799 12.4135 13.9395 12.4135 13.7932V7.44838C12.4135 7.37521 12.3845 7.30505 12.3327 7.25331C12.281 7.20158 12.2108 7.17252 12.1377 7.17252ZM11.3101 13.2415H4.68939V7.72424H11.3101V13.2415Z" fill="white"/>
<path d="M14.3429 3.86206H1.65329C1.50696 3.86206 1.36663 3.92019 1.26316 4.02366C1.15969 4.12713 1.10156 4.26746 1.10156 4.41378V10.4828C1.10156 10.6291 1.15969 10.7694 1.26316 10.8729C1.36663 10.9763 1.50696 11.0345 1.65329 11.0345H4.68777V7.72413H11.3085V11.0345H14.3429C14.4893 11.0345 14.6296 10.9763 14.7331 10.8729C14.8365 10.7694 14.8947 10.6291 14.8947 10.4828V4.41378C14.8947 4.26746 14.8365 4.12713 14.7331 4.02366C14.6296 3.92019 14.4893 3.86206 14.3429 3.86206Z" fill="white"/>
</svg>
