<svg width="18" height="21" viewBox="0 0 18 21" fill="none" xmlns="http://www.w3.org/2000/svg">
<path d="M18 0.0107144C17.87 0.0107144 17.74 0.0642857 17.65 0.171429L16.86 1.01786C16.66 1.23214 16.35 1.23214 16.15 1.01786L15.36 0.171429C15.16 -0.0428571 14.85 -0.0428571 14.65 0.171429L13.86 1.01786C13.66 1.23214 13.35 1.23214 13.15 1.01786L12.36 0.171429C12.16 -0.0428571 11.85 -0.0428571 11.65 0.171429L10.86 1.01786C10.66 1.23214 10.35 1.23214 10.15 1.01786L9.36 0.171429C9.16 -0.0428571 8.85 -0.0428571 8.65 0.171429L7.86 1.01786C7.66 1.23214 7.35 1.23214 7.15 1.01786L6.35 0.160714C6.15 -0.0535714 5.84 -0.0535714 5.64 0.160714L4.85 1.01786C4.65 1.23214 4.34 1.23214 4.14 1.01786L3.35 0.160714C3.15 -0.0535714 2.84 -0.0535714 2.64 0.160714L1.85 1.01786C1.65 1.23214 1.34 1.23214 1.14 1.01786L0.35 0.160714C0.26 0.0642857 0.13 0.0107144 0 0.0107144V21C0.13 21 0.26 20.9464 0.35 20.8393L1.14 19.9929C1.34 19.7786 1.65 19.7786 1.85 19.9929L2.64 20.8393C2.84 21.0536 3.15 21.0536 3.35 20.8393L4.14 19.9929C4.34 19.7786 4.65 19.7786 4.85 19.9929L5.64 20.8393C5.84 21.0536 6.15 21.0536 6.35 20.8393L7.14 19.9929C7.34 19.7786 7.65 19.7786 7.85 19.9929L8.64 20.8393C8.84 21.0536 9.15 21.0536 9.35 20.8393L10.14 19.9929C10.34 19.7786 10.65 19.7786 10.85 19.9929L11.64 20.8393C11.84 21.0536 12.15 21.0536 12.35 20.8393L13.14 19.9929C13.34 19.7786 13.65 19.7786 13.85 19.9929L14.64 20.8393C14.84 21.0536 15.15 21.0536 15.35 20.8393L16.14 19.9929C16.34 19.7786 16.65 19.7786 16.85 19.9929L17.64 20.8393C17.74 20.9464 17.87 21 17.99 21V0.0107144H18ZM14 15.8571H4C3.45 15.8571 3 15.375 3 14.7857C3 14.1964 3.45 13.7143 4 13.7143H14C14.55 13.7143 15 14.1964 15 14.7857C15 15.375 14.55 15.8571 14 15.8571ZM14 11.5714H4C3.45 11.5714 3 11.0893 3 10.5C3 9.91071 3.45 9.42857 4 9.42857H14C14.55 9.42857 15 9.91071 15 10.5C15 11.0893 14.55 11.5714 14 11.5714ZM14 7.28571H4C3.45 7.28571 3 6.80357 3 6.21429C3 5.625 3.45 5.14286 4 5.14286H14C14.55 5.14286 15 5.625 15 6.21429C15 6.80357 14.55 7.28571 14 7.28571Z" fill="#212121"/>
</svg>
