<svg width="25" height="20" viewBox="0 0 25 20" fill="none" xmlns="http://www.w3.org/2000/svg">
<path d="M12.7667 13.4112H9.72699C8.99746 13.4112 8.51112 12.9235 8.51112 12.192C8.51112 11.4605 8.99746 10.9728 9.72699 10.9728H12.7667C15.0768 10.9728 17.0222 9.02208 17.0222 6.7056C17.0222 4.38912 15.0768 2.4384 12.7667 2.4384H6.6873C4.37714 2.4384 2.43175 4.38912 2.43175 6.7056C2.43175 7.9248 2.9181 9.02208 3.76921 9.87552C4.25556 10.3632 4.25556 11.0947 3.8908 11.5824C3.40445 12.0701 2.67492 12.0701 2.18857 11.7043C0.851111 10.3632 0 8.5344 0 6.7056C0 3.048 3.03968 0 6.6873 0H12.7667C16.4143 0 19.454 3.048 19.454 6.7056C19.454 10.3632 16.4143 13.4112 12.7667 13.4112Z" fill="#C38BFF"/>
<path d="M17.6319 19.5068H11.5525C7.90492 19.5068 4.86523 16.4588 4.86523 12.8012C4.86523 9.14364 7.90492 6.09564 11.5525 6.09564H14.5922C15.3217 6.09564 15.8081 6.58332 15.8081 7.31484C15.8081 8.04636 15.3217 8.53404 14.5922 8.53404H11.5525C9.24238 8.53404 7.29698 10.4848 7.29698 12.8012C7.29698 15.1177 9.24238 17.0684 11.5525 17.0684H17.6319C19.9421 17.0684 21.8875 15.1177 21.8875 12.8012C21.8875 11.582 21.4011 10.4848 20.55 9.75324C20.0637 9.26556 20.0637 8.53404 20.55 8.04636C21.0364 7.55868 21.7659 7.55868 22.2522 8.04636C23.5897 9.26556 24.3192 11.0944 24.3192 12.9232C24.3192 16.4588 21.2795 19.5068 17.6319 19.5068Z" fill="#C38BFF"/>
</svg>
