<svg width="20" height="20" viewBox="0 0 20 20" fill="none" xmlns="http://www.w3.org/2000/svg">
<path d="M7.96653 15.9331C3.59515 15.9331 0 12.3788 0 7.96653C0 3.59515 3.5543 0 7.96653 0C12.3788 0 15.9331 3.5543 15.9331 7.96653C15.8922 12.3788 12.3379 15.9331 7.96653 15.9331ZM7.96653 1.18477C4.20796 1.18477 1.14391 4.24882 1.14391 8.00739C1.14391 11.766 4.20796 14.83 7.96653 14.83C11.7251 14.83 14.7892 11.766 14.7892 8.00739C14.7483 4.24882 11.6843 1.18477 7.96653 1.18477Z" fill="#656565"/>
<path d="M18.5889 19.4868L13.0327 13.9715L13.9315 13.0728L19.4468 18.6289L18.5889 19.4868Z" fill="#656565"/>
</svg>
