<svg width="34" height="27" viewBox="0 0 34 27" fill="none" xmlns="http://www.w3.org/2000/svg">
<path d="M34 3.19613C32.721 3.74133 31.3684 4.10367 29.9837 4.27198C31.4429 3.4259 32.5339 2.08614 33.0501 0.506497C31.6838 1.29851 30.1889 1.85625 28.6301 2.15558C27.6744 1.1582 26.4338 0.46479 25.0697 0.165452C23.7055 -0.133885 22.2807 -0.0253159 20.9805 0.477054C19.6803 0.979425 18.5647 1.85237 17.7787 2.98249C16.9926 4.1126 16.5725 5.44764 16.5729 6.81415C16.5729 7.35416 16.6196 7.87339 16.7344 8.3677C13.9614 8.23482 11.2484 7.53142 8.77264 6.30347C6.2969 5.07552 4.1142 3.35069 2.36725 1.24173C1.47224 2.74099 1.19554 4.51729 1.5935 6.20894C1.99146 7.90059 3.03415 9.38039 4.50925 10.347C3.40586 10.3181 2.32576 10.0303 1.36 9.50794V9.58271C1.36185 11.1558 1.91816 12.6803 2.9353 13.8995C3.95243 15.1187 5.36828 15.9582 6.9445 16.2767C6.3482 16.4303 5.73365 16.5057 5.117 16.501C4.67413 16.5087 4.23169 16.4697 3.79737 16.3847C4.24775 17.7368 5.11592 18.9192 6.28234 19.7692C7.44876 20.6191 8.85607 21.0947 10.3105 21.1305C7.84324 23.0164 4.80032 24.0395 1.66813 24.0361C1.0965 24.0361 0.54825 24.0112 0 23.9426C3.18725 25.9501 6.90131 27.012 10.693 26.9999C23.5195 26.9999 30.532 16.6152 30.532 7.61377C30.532 7.31262 30.5214 7.02185 30.5065 6.73315C31.8813 5.7715 33.0652 4.57289 34 3.19613Z" fill="#3C82D6"/>
</svg>
