<svg width="19" height="20" viewBox="0 0 19 20" fill="none" xmlns="http://www.w3.org/2000/svg">
<path d="M18.2122 11.4595C17.9048 11.0326 17.7393 10.5189 17.7393 9.99166C17.7393 9.46446 17.9048 8.95073 18.2122 8.52378L18.8423 7.64806C18.9193 7.54113 18.97 7.41731 18.9901 7.28682C19.0103 7.15632 18.9994 7.02287 18.9583 6.89744C18.9168 6.77333 18.8473 6.66057 18.7552 6.56797C18.6632 6.47537 18.5511 6.40545 18.4278 6.36367L17.4082 6.03006C16.9087 5.86796 16.4733 5.55037 16.1649 5.12314C15.8565 4.6959 15.691 4.18112 15.6922 3.6531V2.56887C15.6921 2.43723 15.6611 2.30748 15.6016 2.19024C15.5421 2.073 15.4559 1.97159 15.3499 1.89431C15.244 1.81703 15.1214 1.76607 14.9922 1.7456C14.8629 1.72513 14.7307 1.73574 14.6063 1.77654L13.5784 2.11015C13.0794 2.27262 12.5421 2.27219 12.0433 2.10891C11.5446 1.94563 11.1099 1.62788 10.8014 1.20107L10.1714 0.325346C10.091 0.223853 9.98887 0.141899 9.87263 0.0855741C9.75638 0.029249 9.62902 0 9.5 0C9.37098 0 9.24361 0.029249 9.12737 0.0855741C9.01113 0.141899 8.90899 0.223853 8.82855 0.325346L8.19855 1.20107C7.8901 1.62788 7.45541 1.94563 6.95665 2.10891C6.45789 2.27219 5.92059 2.27262 5.42157 2.11015L4.39368 1.77654C4.26928 1.73574 4.13706 1.72513 4.00781 1.7456C3.87856 1.76607 3.75597 1.81703 3.65005 1.89431C3.54413 1.97159 3.4579 2.073 3.39841 2.19024C3.33891 2.30748 3.30785 2.43723 3.30775 2.56887V3.6531C3.30903 4.18112 3.14351 4.6959 2.83509 5.12314C2.52667 5.55037 2.09131 5.86796 1.59183 6.03006L0.572222 6.36367C0.448868 6.40545 0.336791 6.47537 0.244756 6.56797C0.152721 6.66057 0.0832223 6.77333 0.0416952 6.89744C0.000588936 7.02287 -0.0103252 7.15632 0.00985095 7.28682C0.0300271 7.41731 0.0807169 7.54113 0.157748 7.64806L0.787749 8.52378C1.09516 8.95073 1.26068 9.46446 1.26068 9.99166C1.26068 10.5189 1.09516 11.0326 0.787749 11.4595L0.157748 12.3353C0.0807169 12.4422 0.0300271 12.566 0.00985095 12.6965C-0.0103252 12.827 0.000588936 12.9605 0.0416952 13.0859C0.0832223 13.21 0.152721 13.3228 0.244756 13.4154C0.336791 13.508 0.448868 13.5779 0.572222 13.6197L1.59183 13.9533C2.09131 14.1154 2.52667 14.433 2.83509 14.8602C3.14351 15.2874 3.30903 15.8022 3.30775 16.3302V17.4145C3.30785 17.5461 3.33891 17.6758 3.39841 17.7931C3.4579 17.9103 3.54413 18.0117 3.65005 18.089C3.75597 18.1663 3.87856 18.2173 4.00781 18.2377C4.13706 18.2582 4.26928 18.2476 4.39368 18.2068L5.41328 17.8732C5.91336 17.708 6.4527 17.707 6.95336 17.8704C7.45403 18.0338 7.89009 18.3532 8.19855 18.7823L8.82855 19.658C8.90594 19.764 9.00706 19.8502 9.1237 19.9096C9.24035 19.969 9.36926 20 9.5 20C9.63074 20 9.75965 19.969 9.8763 19.9096C9.99294 19.8502 10.0941 19.764 10.1714 19.658L10.8014 18.7823C11.1104 18.3538 11.5465 18.0349 12.047 17.8715C12.5475 17.7082 13.0866 17.7088 13.5867 17.8732L14.6063 18.2068C14.7307 18.2476 14.8629 18.2582 14.9922 18.2377C15.1214 18.2173 15.244 18.1663 15.3499 18.089C15.4559 18.0117 15.5421 17.9103 15.6016 17.7931C15.6611 17.6758 15.6921 17.5461 15.6922 17.4145V16.3302C15.691 15.8022 15.8565 15.2874 16.1649 14.8602C16.4733 14.433 16.9087 14.1154 17.4082 13.9533L18.4278 13.6197C18.5511 13.5779 18.6632 13.508 18.7552 13.4154C18.8473 13.3228 18.9168 13.21 18.9583 13.0859C18.9994 12.9605 19.0103 12.827 18.9901 12.6965C18.97 12.566 18.9193 12.4422 18.8423 12.3353L18.2122 11.4595ZM13.4043 8.91327L9.2596 13.0834C9.10415 13.2397 8.89334 13.3276 8.67354 13.3276C8.45373 13.3276 8.24292 13.2397 8.08747 13.0834L5.60063 10.5813C5.52145 10.5044 5.4583 10.4124 5.41486 10.3106C5.37141 10.2088 5.34854 10.0994 5.34759 9.98866C5.34663 9.87792 5.36761 9.7681 5.40929 9.6656C5.45097 9.5631 5.51252 9.46998 5.59035 9.39167C5.66818 9.31336 5.76074 9.25144 5.86261 9.2095C5.96449 9.16756 6.07364 9.14646 6.18371 9.14742C6.29378 9.14839 6.40255 9.17139 6.50369 9.2151C6.60482 9.25881 6.69629 9.32235 6.77276 9.40201L8.67105 11.3144L12.2297 7.73397C12.3861 7.58204 12.5955 7.49798 12.8128 7.49988C13.0302 7.50178 13.2381 7.58949 13.3918 7.74413C13.5455 7.89876 13.6326 8.10794 13.6345 8.32662C13.6364 8.5453 13.5529 8.75597 13.4019 8.91327H13.4043Z" fill="#A4A4A4"/>
</svg>
