<svg width="15" height="15" viewBox="0 0 15 15" fill="none" xmlns="http://www.w3.org/2000/svg">
<path d="M10 8C12.2049 8 14 6.20558 14 4.00153C14 1.79748 12.2049 0 10 0C7.79511 0 6 1.79442 6 3.99847C6 6.20252 7.79511 8 10 8ZM10 0.611387C11.8716 0.611387 13.3914 2.12763 13.3914 3.99847C13.3914 5.86932 11.8746 7.38861 10.0031 7.38861C8.1315 7.38861 6.61162 5.87237 6.61162 4.00153C6.61162 4.00153 6.61162 4.00153 6.61162 3.99847C6.61468 2.13068 8.12844 0.614444 10 0.611387Z" fill="#626334"/>
<path d="M9.99467 5.49263C9.70893 5.49263 9.47971 5.27434 9.47971 5.00885C9.47971 4.84661 9.33841 4.71386 9.16571 4.71386C8.98987 4.71386 8.84857 4.84366 8.84543 5.00885C8.84543 5.48968 9.20025 5.89675 9.63985 6.03245V6.29794C9.63985 6.46018 9.78115 6.59292 9.95385 6.59292C10.1266 6.59292 10.2679 6.46018 10.2679 6.29794V6.05015C10.8802 5.9056 11.2507 5.32153 11.0968 4.74631C10.9681 4.27139 10.5128 3.9351 9.99153 3.9351C9.70579 3.9351 9.47657 3.71681 9.47971 3.44838C9.48285 3.17994 9.71207 2.9646 9.99781 2.96755C10.2804 2.96755 10.5096 3.18584 10.5096 3.45133C10.5096 3.61357 10.6509 3.74631 10.8236 3.74631C10.9932 3.74631 11.1314 3.61652 11.1314 3.45428V3.45133C11.1314 2.9587 10.7765 2.53097 10.2679 2.41003V2.29499C10.2679 2.13274 10.1266 2 9.95385 2C9.78115 2 9.63985 2.13274 9.63985 2.29499V2.42773C9.20025 2.56637 8.84543 2.97345 8.84543 3.45133C8.84543 4.04425 9.35725 4.52507 9.99153 4.52507C10.2773 4.52507 10.5065 4.74336 10.5034 5.0118C10.5034 5.27434 10.2773 5.48968 9.99467 5.49263ZM14.7298 9.25074C14.3248 8.78171 13.5931 8.71091 13.0907 9.09145C12.4627 9.57227 11.549 10.2655 10.9555 10.7168C10.5379 11.0324 10.0229 11.2124 9.48599 11.2301L7.8783 11.2802C7.81236 11.2832 7.7527 11.2507 7.71816 11.2006L7.53918 10.9115C7.50778 10.8643 7.50464 10.8083 7.52976 10.7581C7.55488 10.708 7.60198 10.6726 7.6585 10.6637L9.31957 10.3687C9.90361 10.2655 10.3118 9.74631 10.2459 9.18289C10.1831 8.64012 9.69323 8.23304 9.11547 8.23304C9.09977 8.23304 9.08093 8.23304 9.05895 8.23304L6.83895 8.14749C5.95347 8.11799 5.19359 8.27729 4.30496 8.68142L3.14316 9.20944C2.97988 8.89086 2.63761 8.68732 2.26081 8.68732H0.976545C0.439602 8.68437 0.00314002 9.09145 0 9.59587V14.0885C0.00314002 14.5929 0.439602 15 0.976545 15H2.26081C2.79775 15 3.23108 14.5929 3.23422 14.0885V13.7847L4.46824 13.5723C4.86702 13.5162 5.11823 13.4956 5.54213 13.5133L8.91765 13.6608C10.1328 13.7109 11.3229 13.3333 12.2555 12.6018L14.5948 10.7788L14.5979 10.7758C15.0658 10.4012 15.1349 9.74336 14.7549 9.28909C14.7487 9.27434 14.7392 9.26254 14.7298 9.25074ZM2.60621 14.0885C2.60621 14.2655 2.45235 14.41 2.26395 14.41H0.970265C0.781864 14.41 0.628003 14.2655 0.628003 14.0885V9.59882C0.628003 9.42183 0.781864 9.27729 0.970265 9.27729H2.26395C2.45235 9.27729 2.60621 9.42183 2.60621 9.59882V14.0885ZM14.1929 10.3245L11.8567 12.1445C11.0434 12.7817 10.0041 13.1091 8.9459 13.0678L5.57039 12.9204C5.09625 12.8997 4.80736 12.9263 4.3709 12.9853C4.36776 12.9853 4.36462 12.9853 4.36148 12.9882L3.23422 13.1829V9.82006L4.57814 9.20944C5.36943 8.84956 6.03825 8.70796 6.81383 8.73451L9.04953 8.82006C9.06209 8.82006 9.07779 8.82006 9.09035 8.82006C9.09349 8.82006 9.10605 8.82006 9.11547 8.82006C9.37295 8.82301 9.59275 9.00295 9.62415 9.24484C9.65555 9.49853 9.47343 9.73451 9.20653 9.78466L7.54546 10.0796C7.109 10.1563 6.82325 10.5546 6.90489 10.9646C6.92373 11.0501 6.95514 11.1327 7.00224 11.2065L7.18122 11.4926C7.33194 11.7316 7.60826 11.8732 7.90342 11.8643L9.51111 11.8142C10.1831 11.7906 10.8299 11.5634 11.3543 11.1711C11.9478 10.7198 12.8646 10.0265 13.4926 9.54572C13.7187 9.38053 14.0422 9.40708 14.2337 9.60767C14.24 9.61947 14.2494 9.63127 14.2588 9.64307C14.4378 9.84661 14.4095 10.1534 14.1929 10.3245Z" fill="#626334"/>
</svg>
